<?xml version="1.0" encoding="UTF-8"?>
<svg width="256px" height="78px" viewBox="0 0 256 78" version="1.1" xmlns="http://www.w3.org/2000/svg" xmlns:xlink="http://www.w3.org/1999/xlink">
    <title>Skydottir Epic Cookies</title>
    <g id="Welcome" stroke="none" stroke-width="1" fill="none" fill-rule="evenodd">
        <g id="Desktop-3" transform="translate(-344.000000, -962.000000)">
            <g id="epic-cookies" transform="translate(72.000000, 962.000000)">
                <g id="logo-epic-cookies" transform="translate(272.000000, 0.000000)">
                    <path d="M204.936678,76.1839186 C204.731878,76.1839186 204.524475,76.135322 204.332258,76.0342237 C203.768624,75.738739 203.501776,75.0766102 203.702237,74.4726237 L208.268149,60.7080678 L202.170576,60.7080678 L202.170576,61.7919458 C202.170576,66.0259254 197.95699,70.7601898 192.316312,70.7601898 L151.02438,70.7601898 C150.30541,70.7601898 149.722251,70.1770305 149.722251,69.458061 L149.722251,65.5950644 C148.186251,68.3286237 144.432163,70.7146305 141.326319,70.7146305 L136.22758,70.7146305 C135.509044,70.7146305 134.925451,70.1319051 134.925451,69.4125017 L134.925451,65.6857492 L134.734536,65.6874847 C133.607702,67.5714712 131.278969,70.6851254 126.211037,70.7007458 C124.632515,70.7055186 123.362495,70.7063864 122.200081,70.7063864 L119.076447,70.7037831 C117.861966,70.7016136 116.555932,70.7007458 114.911892,70.7007458 C110.78118,70.6859932 107.733478,67.6326508 106.504244,65.6432271 L101.149505,65.6432271 L101.149505,69.4394034 C101.149505,70.1583729 100.566346,70.7415322 99.8473763,70.7415322 L95.0345763,70.7415322 C91.2974102,70.7415322 87.9251525,68.2171119 86.4564068,65.5347525 L86.2893559,65.5347525 L86.2893559,69.3582644 C86.2893559,70.0772339 85.7061966,70.6599593 84.9872271,70.6599593 L79.9153898,70.6599593 C79.1964203,70.6599593 78.613261,70.0772339 78.613261,69.3582644 L78.613261,62.2531797 L71.4999322,62.2531797 L71.5229288,69.5253153 C71.5237966,69.8711322 71.3871186,70.2030644 71.1441356,70.4477831 C70.9011525,70.6929356 70.570522,70.8304814 70.2247051,70.8322169 L47.1013966,70.8955661 L48.3102373,74.4435525 C48.516339,75.0484068 48.2538305,75.7127051 47.6901966,76.011661 C47.4958102,76.1157966 47.2862373,76.1643932 47.0792678,76.1643932 C46.6826847,76.1643932 46.2943458,75.9843254 46.0413831,75.6506576 L30.4583593,55.1398508 C30.1598373,54.7463051 30.1090712,54.2169492 30.3286237,53.773939 C30.5486102,53.3313627 31.0007322,53.0506305 31.4949424,53.0506305 L34.2714576,53.0506305 L31.3278915,46.1399322 C31.2597695,45.9780881 31.223322,45.8049627 31.223322,45.6296678 L31.223322,37.6836881 L27.8632136,37.6836881 C26.4612881,40.0263051 21.4107119,47.2025492 12.16,47.2025492 L2.64113898,47.2025492 C1.92216949,47.2025492 1.33901017,46.6193898 1.33901017,45.9004203 L1.33901017,36.6800814 C1.33901017,35.9611119 1.92216949,35.3779525 2.64113898,35.3779525 L11.6987661,35.3779525 C14.3143051,35.3779525 17.1992949,33.3598915 17.8896271,30.4883525 L2.65025085,30.4883525 C2.3048678,30.4883525 1.97380339,30.3503729 1.72995254,30.106522 C1.48610169,29.8626712 1.34812203,29.530739 1.34812203,29.1862237 C1.34812203,29.1862237 1.35029153,22.4976814 1.34812203,20.545139 C1.34812203,9.50242712 10.7810712,2.08536949 19.5900746,2.08536949 C19.5900746,2.08536949 210.180339,2.0584678 223.087946,2.0584678 C236.34701,2.0584678 250.730305,12.4919864 250.84706,29.3489356 C250.849627,29.6951864 250.713817,30.0288542 250.469098,30.2757424 C250.224814,30.5217627 249.892447,30.6601763 249.545763,30.6601763 L245.835932,30.6601763 C247.625329,33.5594847 250.414427,39.1854102 250.414427,46.1000136 C250.414427,46.8189831 249.831268,47.4021424 249.112298,47.4021424 L239.72838,47.4021424 C239.366942,47.4021424 239.022427,47.2494102 238.775539,46.9851661 C238.529519,46.7213559 238.40499,46.3642576 238.430156,46.0036881 C238.452285,45.6938847 238.851905,39.0365831 233.33619,34.475878 L233.363959,46.0969763 C233.363959,46.4427932 233.227281,46.7747254 232.982997,47.0194441 C232.739146,47.2645966 232.407214,47.4021424 232.061397,47.4021424 L220.245478,47.4021424 L217.843851,52.9690576 L220.493234,52.9690576 C220.986576,52.9690576 221.438698,53.2493559 221.658685,53.6910644 C221.878237,54.1327729 221.829207,54.661261 221.531986,55.0561085 L205.976298,75.6667119 C205.723336,76.0016814 205.334997,76.1839186 204.936678,76.1839186" id="Fill-4" fill="#FFFFFE"></path>
                    <path d="M223.08838,0.756772881 C210.327431,0.756772881 21.4957559,0.783674576 19.5896407,0.784108475 C10.1523525,0.784108475 0.0468610169,8.72401356 0.0468610169,20.5447051 C0.0490305085,22.4989831 0.0468610169,29.1853559 0.0468610169,29.1853559 C0.0468610169,29.8756881 0.321084746,30.5382508 0.809220339,31.0268203 C1.29735593,31.5149559 1.95991864,31.7896136 2.65025085,31.7896136 L15.876339,31.7896136 C14.8883525,33.1759186 13.213939,34.0766915 11.6987661,34.0766915 L2.64113898,34.0766915 C1.2032,34.0766915 0.0377491525,35.2425763 0.0377491525,36.6800814 L0.0377491525,45.9004203 C0.0377491525,47.3379254 1.2032,48.5038102 2.64113898,48.5038102 L12.1595661,48.5038102 C21.3234983,48.5038102 26.6370169,41.9627932 28.5808814,38.9853831 L29.9224949,38.9853831 L29.9224949,45.6292339 C29.9224949,45.9798237 29.9932203,46.3265085 30.1307661,46.6493288 L32.302861,51.7493695 L31.4953763,51.7493695 C30.506522,51.7493695 29.6027119,52.3095322 29.1631729,53.1955525 C28.7236339,54.0815729 28.8242983,55.1398508 29.4226441,55.9273763 L45.0052339,76.4386169 C45.5120271,77.1059525 46.2874034,77.4673898 47.0792678,77.4673898 C47.4940746,77.4673898 47.9132203,77.3680271 48.3006915,77.1619254 C49.4283932,76.5618441 49.9538441,75.2332475 49.5420746,74.0239729 L48.9181288,72.1920542 L70.2281763,72.133478 C70.9185085,72.1313085 71.5802034,71.8553492 72.0670373,71.365478 C72.5538712,70.8760407 72.8263593,70.2126102 72.8241898,69.5218441 L72.8050983,63.5548746 L77.3124339,63.5548746 L77.3124339,69.3582644 C77.3124339,70.7957695 78.4778847,71.9616542 79.9158237,71.9616542 L84.9867932,71.9616542 C86.4247322,71.9616542 87.5901831,70.7957695 87.5901831,69.3582644 L87.5901831,68.9859797 C89.5353492,70.7536814 92.1921085,72.0427932 95.0341424,72.0427932 L99.8478102,72.0427932 C101.285749,72.0427932 102.4512,70.8769085 102.4512,69.4394034 L102.4512,66.9444881 L105.808705,66.9444881 C107.40979,69.1808 110.605885,71.9876881 114.903647,72.0020068 C116.555498,72.0020068 117.860231,72.0037424 119.074278,72.005478 C120.131254,72.0067797 121.119241,72.0080814 122.200081,72.0080814 C123.363363,72.0080814 124.634685,72.0067797 126.214942,72.0020068 C129.686129,71.9920271 132.038725,70.669939 133.62419,69.1794983 L133.62419,69.4125017 C133.62419,70.8500068 134.789641,72.0158915 136.22758,72.0158915 L141.325885,72.0158915 C143.758753,72.0158915 146.405532,70.8556475 148.42099,69.1404475 L148.42099,69.458061 C148.42099,70.8955661 149.586875,72.0614508 151.02438,72.0614508 L192.316746,72.0614508 C198.606536,72.0614508 203.329519,66.8004339 203.469234,62.0093288 L206.464868,62.0093288 L202.466495,74.061722 C202.064705,75.2714305 202.598834,76.5943864 203.726969,77.1866576 C204.110969,77.3884203 204.525776,77.4851797 204.93581,77.4851797 C205.731146,77.4851797 206.508692,77.121139 207.015051,76.4498983 L222.570739,55.8397288 C223.165614,55.0517695 223.263675,53.9947932 222.822834,53.1109424 C222.382427,52.2270915 221.479919,51.6682305 220.4928,51.6682305 L219.822861,51.6682305 L221.101993,48.7029695 L232.061831,48.7029695 C232.753464,48.7029695 233.416461,48.4274441 233.905031,47.9380068 C234.393166,47.4485695 234.666956,46.7847051 234.66522,46.0930712 L234.644827,37.7669966 C237.415702,41.6013559 237.137139,45.8435797 237.133234,45.9004203 C237.077695,46.6232949 237.326319,47.3366237 237.818793,47.8685831 C238.311268,48.4005424 239.003769,48.7029695 239.728814,48.7029695 L249.111864,48.7029695 C250.549369,48.7029695 251.715254,47.5370847 251.715254,46.0995797 C251.715254,40.2371797 249.793519,35.2551593 248.067037,31.9614373 L249.545763,31.9614373 C250.239566,31.9614373 250.904298,31.6846102 251.393302,31.1925695 C251.881871,30.7005288 252.153925,30.0336271 252.149214,29.3398237 C252.09318,21.3608678 248.835905,14.0002169 242.976542,8.61250169 C237.547607,3.6200678 230.298902,0.756772881 223.08838,0.756772881 Z M223.08838,3.36016271 C236.256759,3.36016271 249.437288,13.8101695 249.545763,29.3580475 L243.362712,29.3580475 C243.362712,29.3580475 249.111864,36.4817898 249.111864,46.0995797 L239.728814,46.0995797 C239.728814,46.0995797 240.433898,36.9152542 232.027119,31.979661 L232.061831,46.0995797 L219.389831,46.0995797 L215.864841,54.2716203 L220.4928,54.2716203 L204.937112,74.8817898 L210.071431,59.405939 L200.868447,59.405939 C200.868447,59.405939 200.868447,60.5266983 200.868447,61.7923797 C200.868447,65.1550915 197.307444,69.458061 192.316746,69.458061 L151.02438,69.458061 L151.02438,63.9978847 L149.000244,63.9978847 C148.250902,66.5648271 144.471647,69.4125017 141.325885,69.4125017 L136.22758,69.4125017 L136.22758,64.3684339 L133.976515,64.3953356 C132.891769,66.3209763 130.926644,69.3851661 126.207132,69.3986169 C124.629912,69.4033898 123.361193,69.4046915 122.200081,69.4046915 C119.877858,69.4046915 117.985627,69.3986169 114.912325,69.3986169 C110.831078,69.3851661 107.945654,65.887078 107.281356,64.3410983 L99.8478102,64.3410983 L99.8478102,69.4394034 C99.8478102,69.4394034 98.5595661,69.4394034 95.0341424,69.4394034 C91.5087186,69.4394034 88.2544814,66.7006373 87.2782102,64.2326237 L84.9867932,64.2326237 L84.9867932,69.3582644 L79.9158237,69.3582644 L79.9158237,60.9514847 L70.1934644,60.9514847 L70.2208,69.5300881 L45.2842305,69.5986441 L47.0779661,74.8635661 L31.4953763,54.3527593 L36.240922,54.3527593 L32.5258847,45.6292339 L32.5258847,36.3819932 L27.1021559,36.3819932 C27.1021559,36.3819932 22.301939,45.9004203 12.1595661,45.9004203 C1.98682034,45.9004203 2.83075254,45.9004203 2.64113898,45.9004203 L2.64113898,36.6800814 C2.64113898,36.6800814 10.9936814,36.6800814 11.6987661,36.6800814 C15.3053288,36.6800814 19.3462237,33.5074169 19.3462237,29.1862237 L2.65025085,29.1862237 C2.65025085,29.1862237 2.65242034,22.4972475 2.65025085,20.5447051 C2.65025085,10.4565695 11.2375322,3.38749831 19.5900746,3.38749831 C19.5900746,3.38749831 210.179905,3.36016271 223.08838,3.36016271 L223.08838,3.36016271 Z" id="Fill-5" fill="#FFFFFE"></path>
                    <polyline id="Fill-13" fill="#1B1A19" points="219.746929 46.2818169 219.746929 4.48569492 211.328434 4.48569492 211.328434 46.2753085 206.776841 59.8085966 211.317586 59.8085966 206.776841 73.1626847 220.310129 55.3277288 215.799322 55.3277288 219.746929 46.2818169"></polyline>
                    <polygon id="Stroke-14" stroke="#1B1A19" points="219.746929 46.2818169 219.746929 4.48569492 211.328434 4.48569492 211.328434 46.2753085 206.776841 59.8085966 211.317586 59.8085966 206.776841 73.1626847 220.310129 55.3277288 215.799322 55.3277288"></polygon>
                    <path d="M13.9641492,5.82904407 C11.9534644,6.72461017 10.1818576,7.92911186 8.64976271,9.44168136 C7.1172339,10.9546847 5.90318644,12.7163119 5.00805424,14.7256949 C4.11248814,16.7359458 3.66427119,18.8754983 3.66427119,21.1443525 L3.66427119,29.5632814 L20.3828068,29.5632814 C20.3828068,30.7183186 20.1636881,31.8026305 19.7258847,32.8175186 C19.2876475,33.8328407 18.6906034,34.718861 17.9347525,35.4747119 C17.1780339,36.2309966 16.2928814,36.8284746 15.2775593,37.2658441 C14.2626712,37.7040814 13.1779254,37.9223322 12.0237559,37.9223322 L3.66427119,37.9223322 L3.66427119,46.2818169 L12.0237559,46.2818169 C14.2926102,46.2818169 16.4512542,45.8340339 18.5022915,44.9380339 C20.5515932,44.0429017 22.3327458,42.8388339 23.8457492,41.3258305 C25.3583186,39.8136949 26.5628203,38.0420881 27.4583864,36.011878 C28.3539525,33.9816678 28.8017356,31.8321356 28.8017356,29.5632814 L28.8017356,21.1443525 L12.0237559,21.1443525 C12.0237559,20.0695864 12.2420068,19.0247593 12.680678,18.0098712 C13.1180475,16.9945492 13.7150915,16.1093966 14.4713763,15.352678 C15.2272271,14.5968271 16.1136814,13.9893695 17.1290034,13.5311729 C18.1438915,13.074278 19.2282034,12.8447458 20.3828068,12.8447458 L28.8017356,12.8447458 L28.8017356,4.48569492 L20.3828068,4.48569492 C18.1139525,4.48569492 15.9739661,4.93347797 13.9641492,5.82904407" id="Fill-15" fill="#1B1A19"></path>
                    <path d="M13.9641492,5.82904407 C11.9534644,6.72461017 10.1818576,7.92911186 8.64976271,9.44168136 C7.1172339,10.9546847 5.90318644,12.7163119 5.00805424,14.7256949 C4.11248814,16.7359458 3.66427119,18.8754983 3.66427119,21.1443525 L3.66427119,29.5632814 L20.3828068,29.5632814 C20.3828068,30.7183186 20.1636881,31.8026305 19.7258847,32.8175186 C19.2876475,33.8328407 18.6906034,34.718861 17.9347525,35.4747119 C17.1780339,36.2309966 16.2928814,36.8284746 15.2775593,37.2658441 C14.2626712,37.7040814 13.1779254,37.9223322 12.0237559,37.9223322 L3.66427119,37.9223322 L3.66427119,46.2818169 L12.0237559,46.2818169 C14.2926102,46.2818169 16.4512542,45.8340339 18.5022915,44.9380339 C20.5515932,44.0429017 22.3327458,42.8388339 23.8457492,41.3258305 C25.3583186,39.8136949 26.5628203,38.0420881 27.4583864,36.011878 C28.3539525,33.9816678 28.8017356,31.8321356 28.8017356,29.5632814 L28.8017356,21.1443525 L12.0237559,21.1443525 C12.0237559,20.0695864 12.2420068,19.0247593 12.680678,18.0098712 C13.1180475,16.9945492 13.7150915,16.1093966 14.4713763,15.352678 C15.2272271,14.5968271 16.1136814,13.9893695 17.1290034,13.5311729 C18.1438915,13.074278 19.2282034,12.8447458 20.3828068,12.8447458 L28.8017356,12.8447458 L28.8017356,4.48569492 L20.3828068,4.48569492 C18.1139525,4.48569492 15.9739661,4.93347797 13.9641492,5.82904407 Z" id="Stroke-16" stroke="#1B1A19"></path>
                    <path d="M50.0575458,12.9645017 C50.0575458,14.0388339 49.8484068,15.0645695 49.4305627,16.039539 C49.0127186,17.0153763 48.4352,17.8705898 47.6993085,18.6069153 C46.9621153,19.3436746 46.1064678,19.9203254 45.1314983,20.3381695 C44.155661,20.7564475 43.1108339,20.9651525 41.9970169,20.9651525 L41.9970169,4.48569492 L33.5780881,4.48569492 L33.5780881,46.2818169 L37.4922847,55.3312 L32.9810441,55.3312 L46.5147661,73.1665898 L41.9735864,59.8125017 L46.5147661,59.8125017 L41.9970169,46.2818169 L41.9970169,29.3845153 C43.1108339,29.3845153 44.155661,29.6032 45.1314983,30.0410034 C46.1064678,30.4796746 46.9621153,31.0858305 47.6993085,31.8620746 C48.4352,32.6383186 49.0127186,33.5338847 49.4305627,34.5492068 C49.8484068,35.5640949 50.0575458,36.6688 50.0575458,37.8628881 L50.0575458,46.2818169 L58.4764746,46.2818169 L58.4764746,37.8628881 C58.4764746,35.3953085 57.9887729,33.0861017 57.0138034,30.9365695 C56.0375322,28.7874712 54.634739,26.9360271 52.804122,25.3839729 C54.634739,23.8714034 56.0375322,22.0099797 57.0138034,19.8010034 C57.9887729,17.5915932 58.4764746,15.3136271 58.4764746,12.9645017 L58.4764746,4.48569492 L50.0575458,4.48569492 L50.0575458,12.9645017" id="Fill-17" fill="#1B1A19"></path>
                    <path d="M50.0575458,12.9645017 C50.0575458,14.0388339 49.8484068,15.0645695 49.4305627,16.039539 C49.0127186,17.0153763 48.4352,17.8705898 47.6993085,18.6069153 C46.9621153,19.3436746 46.1064678,19.9203254 45.1314983,20.3381695 C44.155661,20.7564475 43.1108339,20.9651525 41.9970169,20.9651525 L41.9970169,4.48569492 L33.5780881,4.48569492 L33.5780881,46.2818169 L37.4922847,55.3312 L32.9810441,55.3312 L46.5147661,73.1665898 L41.9735864,59.8125017 L46.5147661,59.8125017 L41.9970169,46.2818169 L41.9970169,29.3845153 C43.1108339,29.3845153 44.155661,29.6032 45.1314983,30.0410034 C46.1064678,30.4796746 46.9621153,31.0858305 47.6993085,31.8620746 C48.4352,32.6383186 49.0127186,33.5338847 49.4305627,34.5492068 C49.8484068,35.5640949 50.0575458,36.6688 50.0575458,37.8628881 L50.0575458,46.2818169 L58.4764746,46.2818169 L58.4764746,37.8628881 C58.4764746,35.3953085 57.9887729,33.0861017 57.0138034,30.9365695 C56.0375322,28.7874712 54.634739,26.9360271 52.804122,25.3839729 C54.634739,23.8714034 56.0375322,22.0099797 57.0138034,19.8010034 C57.9887729,17.5915932 58.4764746,15.3136271 58.4764746,12.9645017 L58.4764746,4.48569492 L50.0575458,4.48569492 L50.0575458,12.9645017 Z" id="Stroke-18" stroke="#1B1A19"></path>
                    <path d="M79.8520407,21.2042305 C78.6970034,21.2042305 77.6131254,20.9855458 76.5978034,20.5473085 C75.5829153,20.109939 74.696461,19.5128949 73.9410441,18.7557424 C73.1843254,18.0003254 72.597261,17.1138712 72.1794169,16.0989831 C71.7615729,15.0840949 71.5524339,14.0193085 71.5524339,12.9046237 L71.5524339,4.48569492 L63.2528271,4.48569492 L63.2528271,12.9046237 C63.2528271,15.2537492 63.6802169,17.4332203 64.5367322,19.4426034 C65.3919458,21.4528542 66.5669424,23.2040678 68.0595525,24.6971119 C69.5521627,26.189722 71.3033763,27.3642847 73.314061,28.2199322 C75.3234441,29.0764475 77.5029153,29.5038373 79.8520407,29.5038373 C79.8520407,30.6979254 79.6429017,31.8126102 79.2250576,32.8474576 C78.8072136,33.8831729 78.2192814,34.7683254 77.4638644,35.5042169 C76.7071458,36.2414102 75.8311051,36.8284746 74.8366102,37.2658441 C73.8412475,37.7040814 72.746522,37.9223322 71.5524339,37.9223322 L63.2528271,37.9223322 L63.2528271,46.2818169 L71.5524339,46.2818169 C73.7813695,46.2818169 75.9113763,45.8340339 77.9411525,44.9380339 C79.9713627,44.0429017 81.7525153,42.8288542 83.285478,41.2963254 C84.817139,39.7637966 86.0316203,37.9822102 86.9276203,35.952 C87.8231864,33.9222237 88.2709695,31.7722576 88.2709695,29.5038373 L88.2709695,4.48569492 L79.8520407,4.48569492 L79.8520407,21.2042305" id="Fill-19" fill="#1B1A19"></path>
                    <path d="M79.8520407,21.2042305 C78.6970034,21.2042305 77.6131254,20.9855458 76.5978034,20.5473085 C75.5829153,20.109939 74.696461,19.5128949 73.9410441,18.7557424 C73.1843254,18.0003254 72.597261,17.1138712 72.1794169,16.0989831 C71.7615729,15.0840949 71.5524339,14.0193085 71.5524339,12.9046237 L71.5524339,4.48569492 L63.2528271,4.48569492 L63.2528271,12.9046237 C63.2528271,15.2537492 63.6802169,17.4332203 64.5367322,19.4426034 C65.3919458,21.4528542 66.5669424,23.2040678 68.0595525,24.6971119 C69.5521627,26.189722 71.3033763,27.3642847 73.314061,28.2199322 C75.3234441,29.0764475 77.5029153,29.5038373 79.8520407,29.5038373 C79.8520407,30.6979254 79.6429017,31.8126102 79.2250576,32.8474576 C78.8072136,33.8831729 78.2192814,34.7683254 77.4638644,35.5042169 C76.7071458,36.2414102 75.8311051,36.8284746 74.8366102,37.2658441 C73.8412475,37.7040814 72.746522,37.9223322 71.5524339,37.9223322 L63.2528271,37.9223322 L63.2528271,46.2818169 L71.5524339,46.2818169 C73.7813695,46.2818169 75.9113763,45.8340339 77.9411525,44.9380339 C79.9713627,44.0429017 81.7525153,42.8288542 83.285478,41.2963254 C84.817139,39.7637966 86.0316203,37.9822102 86.9276203,35.952 C87.8231864,33.9222237 88.2709695,31.7722576 88.2709695,29.5038373 L88.2709695,4.48569492 L79.8520407,4.48569492 L79.8520407,21.2042305 Z" id="Stroke-20" stroke="#1B1A19"></path>
                    <path d="M109.88518,29.5038373 C109.88518,30.6979254 109.666061,31.8026305 109.228258,32.8175186 C108.79002,33.8328407 108.202956,34.718861 107.467064,35.4747119 C106.729871,36.2309966 105.844285,36.8284746 104.809871,37.2658441 C103.774156,37.7040814 102.660339,37.9223322 101.466251,37.9223322 L101.466251,12.9645017 C102.660339,12.9645017 103.774156,13.1836203 104.809871,13.6209898 C105.844285,14.059661 106.729871,14.6462915 107.467064,15.3826169 C108.202956,16.1193763 108.79002,16.9750237 109.228258,17.9499932 C109.666061,18.9258305 109.88518,19.9498305 109.88518,21.0250305 L109.88518,29.5038373 Z M113.138983,9.41130847 C111.646807,7.9191322 109.894292,6.73458983 107.884908,5.85898305 C105.874224,4.98381017 103.735105,4.54513898 101.466251,4.54513898 L93.047322,4.54513898 L93.047322,46.3416949 L101.466251,46.3416949 C103.735105,46.3416949 105.874224,45.9143051 107.884908,45.0577898 C109.894292,44.2021424 111.646807,43.0180339 113.138983,41.5050305 C114.632027,39.9928949 115.815702,38.2117424 116.691742,36.161139 C117.566915,34.1114034 118.005586,31.8920136 118.005586,29.5038373 L118.005586,21.0250305 C118.005586,18.7557424 117.566915,16.6270373 116.691742,14.635878 C115.815702,12.6460203 114.632027,10.9043525 113.138983,9.41130847 L113.138983,9.41130847 Z" id="Fill-21" fill="#1B1A19"></path>
                    <path d="M109.88518,29.5038373 C109.88518,30.6979254 109.666061,31.8026305 109.228258,32.8175186 C108.79002,33.8328407 108.202956,34.718861 107.467064,35.4747119 C106.729871,36.2309966 105.844285,36.8284746 104.809871,37.2658441 C103.774156,37.7040814 102.660339,37.9223322 101.466251,37.9223322 L101.466251,12.9645017 C102.660339,12.9645017 103.774156,13.1836203 104.809871,13.6209898 C105.844285,14.059661 106.729871,14.6462915 107.467064,15.3826169 C108.202956,16.1193763 108.79002,16.9750237 109.228258,17.9499932 C109.666061,18.9258305 109.88518,19.9498305 109.88518,21.0250305 L109.88518,29.5038373 Z M113.138983,9.41130847 C111.646807,7.9191322 109.894292,6.73458983 107.884908,5.85898305 C105.874224,4.98381017 103.735105,4.54513898 101.466251,4.54513898 L93.047322,4.54513898 L93.047322,46.3416949 L101.466251,46.3416949 C103.735105,46.3416949 105.874224,45.9143051 107.884908,45.0577898 C109.894292,44.2021424 111.646807,43.0180339 113.138983,41.5050305 C114.632027,39.9928949 115.815702,38.2117424 116.691742,36.161139 C117.566915,34.1114034 118.005586,31.8920136 118.005586,29.5038373 L118.005586,21.0250305 C118.005586,18.7557424 117.566915,16.6270373 116.691742,14.635878 C115.815702,12.6460203 114.632027,10.9043525 113.138983,9.41130847 Z" id="Stroke-22" stroke="#1B1A19"></path>
                    <path d="M139.201519,29.5038373 C139.201519,30.6979254 138.9824,31.8126102 138.544597,32.8474576 C138.106359,33.8831729 137.519295,34.7783051 136.783403,35.5341559 C136.04621,36.2908746 135.161058,36.8775051 134.12621,37.2957831 C133.090495,37.7136271 131.976678,37.9223322 130.78259,37.9223322 L130.78259,21.2641085 C130.78259,20.1889085 131.000841,19.1440814 131.439512,18.1291932 C131.876881,17.1138712 132.463512,16.2183051 133.200705,15.4424949 C133.937031,14.6662508 134.822183,14.0492475 135.857464,13.5910508 C136.892312,13.133722 138.006997,12.9046237 139.201519,12.9046237 L139.201519,29.5038373 Z M132.8128,5.82904407 C130.821641,6.72461017 129.080841,7.93952542 127.588231,9.47118644 C126.095186,11.0041492 124.920624,12.7853017 124.064976,14.815078 C123.208895,16.8452881 122.781505,18.9948203 122.781505,21.2641085 L122.781505,46.2818169 L130.78259,46.2818169 C133.130847,46.2818169 135.329844,45.8340339 137.380447,44.9380339 C139.430183,44.0429017 141.210902,42.8388339 142.724339,41.3258305 C144.236475,39.8136949 145.420149,38.0325424 146.277098,35.9823729 C147.132746,33.9322034 147.560569,31.7722576 147.560569,29.5038373 L147.560569,4.48569492 L139.201519,4.48569492 C136.932664,4.48569492 134.802658,4.93347797 132.8128,5.82904407 L132.8128,5.82904407 Z" id="Fill-23" fill="#1B1A19"></path>
                    <path d="M139.201519,29.5038373 C139.201519,30.6979254 138.9824,31.8126102 138.544597,32.8474576 C138.106359,33.8831729 137.519295,34.7783051 136.783403,35.5341559 C136.04621,36.2908746 135.161058,36.8775051 134.12621,37.2957831 C133.090495,37.7136271 131.976678,37.9223322 130.78259,37.9223322 L130.78259,21.2641085 C130.78259,20.1889085 131.000841,19.1440814 131.439512,18.1291932 C131.876881,17.1138712 132.463512,16.2183051 133.200705,15.4424949 C133.937031,14.6662508 134.822183,14.0492475 135.857464,13.5910508 C136.892312,13.133722 138.006997,12.9046237 139.201519,12.9046237 L139.201519,29.5038373 Z M132.8128,5.82904407 C130.821641,6.72461017 129.080841,7.93952542 127.588231,9.47118644 C126.095186,11.0041492 124.920624,12.7853017 124.064976,14.815078 C123.208895,16.8452881 122.781505,18.9948203 122.781505,21.2641085 L122.781505,46.2818169 L130.78259,46.2818169 C133.130847,46.2818169 135.329844,45.8340339 137.380447,44.9380339 C139.430183,44.0429017 141.210902,42.8388339 142.724339,41.3258305 C144.236475,39.8136949 145.420149,38.0325424 146.277098,35.9823729 C147.132746,33.9322034 147.560569,31.7722576 147.560569,29.5038373 L147.560569,4.48569492 L139.201519,4.48569492 C136.932664,4.48569492 134.802658,4.93347797 132.8128,5.82904407 Z" id="Stroke-24" stroke="#1B1A19"></path>
                    <polyline id="Fill-25" fill="#1B1A19" points="160.338007 4.48569492 152.337356 4.48569492 152.337356 12.9046237 160.338007 12.9046237 160.338007 46.2818169 168.757369 46.2818169 168.757369 12.9046237 177.056542 12.9046237 177.056542 4.48569492 160.338007 4.48569492"></polyline>
                    <polygon id="Stroke-26" stroke="#1B1A19" points="160.338007 4.48569492 152.337356 4.48569492 152.337356 12.9046237 160.338007 12.9046237 160.338007 46.2818169 168.757369 46.2818169 168.757369 12.9046237 177.056542 12.9046237 177.056542 4.48569492"></polygon>
                    <polyline id="Fill-27" fill="#1B1A19" points="189.833546 4.48569492 181.832461 4.48569492 181.832461 12.9046237 189.833546 12.9046237 189.833546 46.2818169 198.252475 46.2818169 198.252475 12.9046237 206.551647 12.9046237 206.551647 4.48569492 189.833546 4.48569492"></polyline>
                    <polygon id="Stroke-28" stroke="#1B1A19" points="189.833546 4.48569492 181.832461 4.48569492 181.832461 12.9046237 189.833546 12.9046237 189.833546 46.2818169 198.252475 46.2818169 198.252475 12.9046237 206.551647 12.9046237 206.551647 4.48569492"></polygon>
                    <path d="M232.285288,21.2042305 L232.285288,15.173478 C233.678102,15.7709559 234.892149,16.6062102 235.927431,17.6814102 C236.962278,18.7557424 237.857844,19.9303051 238.614563,21.2042305 L232.285288,21.2042305 Z M242.913627,29.5038373 L249.18259,29.5038373 C249.18259,26.0803797 248.515688,22.8461017 247.182753,19.8010034 C245.848515,16.7559051 244.037858,14.0987119 241.749044,11.8298576 C239.459797,9.56100339 236.793058,7.76032542 233.748393,6.42608814 C230.702861,5.09271864 227.488108,4.42581695 224.105003,4.42581695 L224.105003,46.2818169 L232.285288,46.2818169 L232.285288,31.7722576 C233.518861,32.4500068 234.663051,33.2856949 235.718725,34.2806237 C236.773098,35.2759864 237.678644,36.4002169 238.435363,37.6537492 C239.191214,38.9077153 239.778712,40.261478 240.196556,41.7141695 C240.614834,43.1677288 240.823539,44.690278 240.823539,46.2818169 L249.18259,46.2818169 C249.18259,42.8587932 248.565153,39.7637966 247.33158,36.9968271 C246.097573,34.2307254 244.624488,31.7336407 242.913627,29.5038373 L242.913627,29.5038373 Z" id="Fill-29" fill="#1B1A19"></path>
                    <path d="M232.285288,21.2042305 L232.285288,15.173478 C233.678102,15.7709559 234.892149,16.6062102 235.927431,17.6814102 C236.962278,18.7557424 237.857844,19.9303051 238.614563,21.2042305 L232.285288,21.2042305 Z M242.913627,29.5038373 L249.18259,29.5038373 C249.18259,26.0803797 248.515688,22.8461017 247.182753,19.8010034 C245.848515,16.7559051 244.037858,14.0987119 241.749044,11.8298576 C239.459797,9.56100339 236.793058,7.76032542 233.748393,6.42608814 C230.702861,5.09271864 227.488108,4.42581695 224.105003,4.42581695 L224.105003,46.2818169 L232.285288,46.2818169 L232.285288,31.7722576 C233.518861,32.4500068 234.663051,33.2856949 235.718725,34.2806237 C236.773098,35.2759864 237.678644,36.4002169 238.435363,37.6537492 C239.191214,38.9077153 239.778712,40.261478 240.196556,41.7141695 C240.614834,43.1677288 240.823539,44.690278 240.823539,46.2818169 L249.18259,46.2818169 C249.18259,42.8587932 248.565153,39.7637966 247.33158,36.9968271 C246.097573,34.2307254 244.624488,31.7336407 242.913627,29.5038373 Z" id="Stroke-30" stroke="#1B1A19"></path>
                    <path d="M51.7458441,53.8967322 C52.1736678,52.8909559 52.765939,52.0144814 53.5230915,51.2673085 C54.2798102,50.5205695 55.1710373,49.9335051 56.1972068,49.5048136 C57.2225085,49.0765559 58.3328542,48.8626441 59.5282441,48.8626441 L63.7704678,48.8626441 L63.7704678,53.0749288 L59.5282441,53.0749288 C58.9307661,53.0749288 58.3779797,53.1847051 57.8703186,53.4033898 C57.3622237,53.6229424 56.9187797,53.9166915 56.5408542,54.2846373 C56.162061,54.6534508 55.863539,55.0817085 55.6444203,55.5694102 C55.4248678,56.0575458 55.3159593,56.5704136 55.3159593,57.1080136 L63.7704678,57.1080136 L63.7704678,61.3498034 L59.3490441,61.3498034 C58.8110102,61.3498034 58.2981424,61.4595797 57.8104407,61.6786983 C57.3218712,61.8982508 56.8940475,62.192 56.5256678,62.5603797 C56.1568542,62.9287593 55.863539,63.3717695 55.6444203,63.8894102 C55.4248678,64.4074847 55.3159593,64.9650441 55.3159593,65.5620881 L63.7704678,65.5620881 L63.7704678,69.7748068 L51.1032407,69.7748068 L51.1032407,65.5620881 C51.1032407,64.7854102 51.2125831,64.0343322 51.4321356,63.3066847 C51.6512542,62.5799051 51.9402305,61.9277559 52.2986305,61.3498034 L51.1032407,61.3498034 L51.1032407,57.1080136 C51.1032407,55.9729356 51.3171525,54.9025085 51.7458441,53.8967322" id="Fill-31" fill="#1B1A19"></path>
                    <path d="M51.7458441,53.8967322 C52.1736678,52.8909559 52.765939,52.0144814 53.5230915,51.2673085 C54.2798102,50.5205695 55.1710373,49.9335051 56.1972068,49.5048136 C57.2225085,49.0765559 58.3328542,48.8626441 59.5282441,48.8626441 L63.7704678,48.8626441 L63.7704678,53.0749288 L59.5282441,53.0749288 C58.9307661,53.0749288 58.3779797,53.1847051 57.8703186,53.4033898 C57.3622237,53.6229424 56.9187797,53.9166915 56.5408542,54.2846373 C56.162061,54.6534508 55.863539,55.0817085 55.6444203,55.5694102 C55.4248678,56.0575458 55.3159593,56.5704136 55.3159593,57.1080136 L63.7704678,57.1080136 L63.7704678,61.3498034 L59.3490441,61.3498034 C58.8110102,61.3498034 58.2981424,61.4595797 57.8104407,61.6786983 C57.3218712,61.8982508 56.8940475,62.192 56.5256678,62.5603797 C56.1568542,62.9287593 55.863539,63.3717695 55.6444203,63.8894102 C55.4248678,64.4074847 55.3159593,64.9650441 55.3159593,65.5620881 L63.7704678,65.5620881 L63.7704678,69.7748068 L51.1032407,69.7748068 L51.1032407,65.5620881 C51.1032407,64.7854102 51.2125831,64.0343322 51.4321356,63.3066847 C51.6512542,62.5799051 51.9402305,61.9277559 52.2986305,61.3498034 L51.1032407,61.3498034 L51.1032407,57.1080136 C51.1032407,55.9729356 51.3171525,54.9025085 51.7458441,53.8967322 Z" id="Stroke-32" stroke="#1B1A19"></path>
                    <path d="M70.3726644,57.2273356 L74.5550102,57.2273356 C74.5550102,56.6697763 74.4356881,56.1321763 74.1966102,55.6145356 C73.9575322,55.096461 73.6438237,54.6430373 73.2554847,54.2551322 C72.8671458,53.8663593 72.4237017,53.5530847 71.9260203,53.3140068 C71.4279051,53.0749288 70.9102644,52.9556068 70.3726644,52.9556068 L70.3726644,57.2273356 Z M66.1603797,69.7448678 L66.1603797,48.8327051 L70.3726644,48.8327051 C71.4877831,48.8327051 72.5430237,49.0565966 73.5392542,49.5048136 C74.5350508,49.9530305 75.4011119,50.5557153 76.1383051,51.3124339 C76.8750644,52.0695864 77.4577898,52.9603797 77.8860475,53.9861153 C78.3138712,55.0118508 78.5282169,56.0922576 78.5282169,57.2273356 L78.5282169,61.3801763 L70.3726644,61.3801763 L70.3726644,69.7448678 L66.1603797,69.7448678 L66.1603797,69.7448678 Z" id="Fill-33" fill="#1B1A19"></path>
                    <path d="M70.3726644,57.2273356 L74.5550102,57.2273356 C74.5550102,56.6697763 74.4356881,56.1321763 74.1966102,55.6145356 C73.9575322,55.096461 73.6438237,54.6430373 73.2554847,54.2551322 C72.8671458,53.8663593 72.4237017,53.5530847 71.9260203,53.3140068 C71.4279051,53.0749288 70.9102644,52.9556068 70.3726644,52.9556068 L70.3726644,57.2273356 Z M66.1603797,69.7448678 L66.1603797,48.8327051 L70.3726644,48.8327051 C71.4877831,48.8327051 72.5430237,49.0565966 73.5392542,49.5048136 C74.5350508,49.9530305 75.4011119,50.5557153 76.1383051,51.3124339 C76.8750644,52.0695864 77.4577898,52.9603797 77.8860475,53.9861153 C78.3138712,55.0118508 78.5282169,56.0922576 78.5282169,57.2273356 L78.5282169,61.3801763 L70.3726644,61.3801763 L70.3726644,69.7448678 L66.1603797,69.7448678 Z" id="Stroke-34" stroke="#1B1A19"></path>
                    <polygon id="Fill-35" fill="#1B1A19" points="80.9176949 69.7448678 85.1304136 69.7448678 85.1304136 48.8327051 80.9176949 48.8327051"></polygon>
                    <polygon id="Stroke-36" stroke="#1B1A19" points="80.9176949 69.7448678 85.1304136 69.7448678 85.1304136 48.8327051 80.9176949 48.8327051"></polygon>
                    <path d="M94.3012881,53.4333288 C93.7836475,53.6524475 93.3349966,53.9461966 92.9570712,54.3150102 C92.5787119,54.6833898 92.2797559,55.1116475 92.0610712,55.5993492 C91.8415186,56.0879186 91.7326102,56.5999186 91.7326102,57.1375186 L91.7326102,61.3202983 C91.7326102,61.9177763 91.8415186,62.4701288 92.0610712,62.9782237 C92.2797559,63.4858847 92.5787119,63.9297627 92.9570712,64.3076881 C93.3349966,64.6864814 93.7836475,64.9850034 94.3012881,65.2036881 C94.8193627,65.4232407 95.3669424,65.5325831 95.9448949,65.5325831 L99.9775458,65.5325831 L99.9775458,69.7448678 L95.9448949,69.7448678 C94.7694644,69.7448678 93.6690983,69.5257492 92.6433627,69.0875119 C91.6176271,68.6501424 90.7264,68.0522305 89.9696814,67.2955119 C89.2125288,66.5383593 88.6150508,65.6475661 88.1772475,64.6213966 C87.7390102,63.595661 87.5198915,62.4957288 87.5198915,61.3202983 L87.5198915,57.1375186 C87.5198915,56.0024407 87.7390102,54.9320136 88.1772475,53.9262373 C88.6150508,52.9208949 89.2125288,52.0439864 89.9696814,51.2972475 C90.7264,50.5505085 91.6176271,49.9630102 92.6433627,49.5347525 C93.6690983,49.1069288 94.7694644,48.8925831 95.9448949,48.8925831 L99.9775458,48.8925831 L99.9775458,53.1048678 L95.9448949,53.1048678 C95.3669424,53.1048678 94.8193627,53.2142102 94.3012881,53.4333288" id="Fill-37" fill="#1B1A19"></path>
                    <path d="M94.3012881,53.4333288 C93.7836475,53.6524475 93.3349966,53.9461966 92.9570712,54.3150102 C92.5787119,54.6833898 92.2797559,55.1116475 92.0610712,55.5993492 C91.8415186,56.0879186 91.7326102,56.5999186 91.7326102,57.1375186 L91.7326102,61.3202983 C91.7326102,61.9177763 91.8415186,62.4701288 92.0610712,62.9782237 C92.2797559,63.4858847 92.5787119,63.9297627 92.9570712,64.3076881 C93.3349966,64.6864814 93.7836475,64.9850034 94.3012881,65.2036881 C94.8193627,65.4232407 95.3669424,65.5325831 95.9448949,65.5325831 L99.9775458,65.5325831 L99.9775458,69.7448678 L95.9448949,69.7448678 C94.7694644,69.7448678 93.6690983,69.5257492 92.6433627,69.0875119 C91.6176271,68.6501424 90.7264,68.0522305 89.9696814,67.2955119 C89.2125288,66.5383593 88.6150508,65.6475661 88.1772475,64.6213966 C87.7390102,63.595661 87.5198915,62.4957288 87.5198915,61.3202983 L87.5198915,57.1375186 C87.5198915,56.0024407 87.7390102,54.9320136 88.1772475,53.9262373 C88.6150508,52.9208949 89.2125288,52.0439864 89.9696814,51.2972475 C90.7264,50.5505085 91.6176271,49.9630102 92.6433627,49.5347525 C93.6690983,49.1069288 94.7694644,48.8925831 95.9448949,48.8925831 L99.9775458,48.8925831 L99.9775458,53.1048678 L95.9448949,53.1048678 C95.3669424,53.1048678 94.8193627,53.2142102 94.3012881,53.4333288 Z" id="Stroke-38" stroke="#1B1A19"></path>
                    <path d="M114.406834,53.4333288 C113.888759,53.6524475 113.440542,53.9461966 113.062617,54.3150102 C112.683824,54.6833898 112.385302,55.1116475 112.166183,55.5993492 C111.946631,56.0879186 111.837722,56.5999186 111.837722,57.1375186 L111.837722,61.3202983 C111.837722,61.9177763 111.946631,62.4701288 112.166183,62.9782237 C112.385302,63.4858847 112.683824,63.9297627 113.062617,64.3076881 C113.440542,64.6864814 113.888759,64.9850034 114.406834,65.2036881 C114.924475,65.4232407 115.472054,65.5325831 116.050007,65.5325831 L120.083092,65.5325831 L120.083092,69.7448678 L116.050007,69.7448678 C114.874576,69.7448678 113.77421,69.5257492 112.748908,69.0875119 C111.722739,68.6501424 110.831512,68.0522305 110.074793,67.2955119 C109.317641,66.5383593 108.720163,65.6475661 108.282793,64.6213966 C107.844122,63.595661 107.625003,62.4957288 107.625003,61.3202983 L107.625003,57.1375186 C107.625003,56.0024407 107.844122,54.9320136 108.282793,53.9262373 C108.720163,52.9208949 109.317641,52.0439864 110.074793,51.2972475 C110.831512,50.5505085 111.722739,49.9630102 112.748908,49.5347525 C113.77421,49.1069288 114.874576,48.8925831 116.050007,48.8925831 L120.083092,48.8925831 L120.083092,53.1048678 L116.050007,53.1048678 C115.472054,53.1048678 114.924475,53.2142102 114.406834,53.4333288" id="Fill-39" fill="#1B1A19"></path>
                    <path d="M114.406834,53.4333288 C113.888759,53.6524475 113.440542,53.9461966 113.062617,54.3150102 C112.683824,54.6833898 112.385302,55.1116475 112.166183,55.5993492 C111.946631,56.0879186 111.837722,56.5999186 111.837722,57.1375186 L111.837722,61.3202983 C111.837722,61.9177763 111.946631,62.4701288 112.166183,62.9782237 C112.385302,63.4858847 112.683824,63.9297627 113.062617,64.3076881 C113.440542,64.6864814 113.888759,64.9850034 114.406834,65.2036881 C114.924475,65.4232407 115.472054,65.5325831 116.050007,65.5325831 L120.083092,65.5325831 L120.083092,69.7448678 L116.050007,69.7448678 C114.874576,69.7448678 113.77421,69.5257492 112.748908,69.0875119 C111.722739,68.6501424 110.831512,68.0522305 110.074793,67.2955119 C109.317641,66.5383593 108.720163,65.6475661 108.282793,64.6213966 C107.844122,63.595661 107.625003,62.4957288 107.625003,61.3202983 L107.625003,57.1375186 C107.625003,56.0024407 107.844122,54.9320136 108.282793,53.9262373 C108.720163,52.9208949 109.317641,52.0439864 110.074793,51.2972475 C110.831512,50.5505085 111.722739,49.9630102 112.748908,49.5347525 C113.77421,49.1069288 114.874576,48.8925831 116.050007,48.8925831 L120.083092,48.8925831 L120.083092,53.1048678 L116.050007,53.1048678 C115.472054,53.1048678 114.924475,53.2142102 114.406834,53.4333288 Z" id="Stroke-40" stroke="#1B1A19"></path>
                    <path d="M129.015756,53.3886373 C128.497247,53.6177356 128.054237,53.9262373 127.685858,54.3150102 C127.317478,54.7029153 127.023729,55.1511322 126.80461,55.6587932 C126.585058,56.1668881 126.475715,56.6897356 126.475715,57.2273356 L126.475715,65.5620881 C127.073627,65.5620881 127.630753,65.4579525 128.149261,65.2488136 C128.666902,65.0396746 129.109912,64.7463593 129.478292,64.3675661 C129.847105,63.9892068 130.140854,63.5409898 130.359539,63.0233492 C130.578658,62.5057085 130.688434,61.9472814 130.688434,61.3498034 L130.688434,53.0449898 C130.090956,53.0449898 129.532963,53.159539 129.015756,53.3886373 Z M122.472569,57.2273356 C122.472569,56.0922576 122.686481,55.0166237 123.115173,54.0008678 C123.542997,52.9851119 124.130929,52.0938847 124.877668,51.3271864 C125.624407,50.5604881 126.495241,49.9530305 127.491905,49.5048136 C128.487702,49.0565966 129.553356,48.8327051 130.688434,48.8327051 L134.87078,48.8327051 L134.87078,61.3498034 C134.87078,62.4853153 134.656868,63.5661559 134.22861,64.5914576 C133.799919,65.6171932 133.207647,66.5084203 132.451363,67.265139 C131.69421,68.0222915 130.802983,68.6245424 129.777247,69.0727593 C128.751078,69.5209763 127.651146,69.7448678 126.475715,69.7448678 L122.472569,69.7448678 L122.472569,57.2273356 L122.472569,57.2273356 Z" id="Fill-41" fill="#1B1A19"></path>
                    <path d="M129.015756,53.3886373 C128.497247,53.6177356 128.054237,53.9262373 127.685858,54.3150102 C127.317478,54.7029153 127.023729,55.1511322 126.80461,55.6587932 C126.585058,56.1668881 126.475715,56.6897356 126.475715,57.2273356 L126.475715,65.5620881 C127.073627,65.5620881 127.630753,65.4579525 128.149261,65.2488136 C128.666902,65.0396746 129.109912,64.7463593 129.478292,64.3675661 C129.847105,63.9892068 130.140854,63.5409898 130.359539,63.0233492 C130.578658,62.5057085 130.688434,61.9472814 130.688434,61.3498034 L130.688434,53.0449898 C130.090956,53.0449898 129.532963,53.159539 129.015756,53.3886373 Z M122.472569,57.2273356 C122.472569,56.0922576 122.686481,55.0166237 123.115173,54.0008678 C123.542997,52.9851119 124.130929,52.0938847 124.877668,51.3271864 C125.624407,50.5604881 126.495241,49.9530305 127.491905,49.5048136 C128.487702,49.0565966 129.553356,48.8327051 130.688434,48.8327051 L134.87078,48.8327051 L134.87078,61.3498034 C134.87078,62.4853153 134.656868,63.5661559 134.22861,64.5914576 C133.799919,65.6171932 133.207647,66.5084203 132.451363,67.265139 C131.69421,68.0222915 130.802983,68.6245424 129.777247,69.0727593 C128.751078,69.5209763 127.651146,69.7448678 126.475715,69.7448678 L122.472569,69.7448678 L122.472569,57.2273356 Z" id="Stroke-42" stroke="#1B1A19"></path>
                    <path d="M143.803444,53.3886373 C143.285369,53.6177356 142.841925,53.9262373 142.473546,54.3150102 C142.105166,54.7029153 141.811417,55.1511322 141.592298,55.6587932 C141.37318,56.1668881 141.263837,56.6897356 141.263837,57.2273356 L141.263837,65.5620881 C141.861315,65.5620881 142.418441,65.4579525 142.936949,65.2488136 C143.45459,65.0396746 143.8976,64.7463593 144.26598,64.3675661 C144.634793,63.9892068 144.928108,63.5409898 145.147661,63.0233492 C145.366346,62.5057085 145.476122,61.9472814 145.476122,61.3498034 L145.476122,53.0449898 C144.878644,53.0449898 144.320651,53.159539 143.803444,53.3886373 Z M137.260692,57.2273356 C137.260692,56.0922576 137.474603,55.0166237 137.902861,54.0008678 C138.331119,52.9851119 138.918617,52.0938847 139.66579,51.3271864 C140.412095,50.5604881 141.283363,49.9530305 142.279593,49.5048136 C143.27539,49.0565966 144.341044,48.8327051 145.476122,48.8327051 L149.658468,48.8327051 L149.658468,61.3498034 C149.658468,62.4853153 149.444556,63.5661559 149.016732,64.5914576 C148.587607,65.6171932 147.995336,66.5084203 147.239051,67.265139 C146.481898,68.0222915 145.590671,68.6245424 144.564936,69.0727593 C143.5392,69.5209763 142.438834,69.7448678 141.263837,69.7448678 L137.260692,69.7448678 L137.260692,57.2273356 L137.260692,57.2273356 Z" id="Fill-43" fill="#1B1A19"></path>
                    <path d="M143.803444,53.3886373 C143.285369,53.6177356 142.841925,53.9262373 142.473546,54.3150102 C142.105166,54.7029153 141.811417,55.1511322 141.592298,55.6587932 C141.37318,56.1668881 141.263837,56.6897356 141.263837,57.2273356 L141.263837,65.5620881 C141.861315,65.5620881 142.418441,65.4579525 142.936949,65.2488136 C143.45459,65.0396746 143.8976,64.7463593 144.26598,64.3675661 C144.634793,63.9892068 144.928108,63.5409898 145.147661,63.0233492 C145.366346,62.5057085 145.476122,61.9472814 145.476122,61.3498034 L145.476122,53.0449898 C144.878644,53.0449898 144.320651,53.159539 143.803444,53.3886373 Z M137.260692,57.2273356 C137.260692,56.0922576 137.474603,55.0166237 137.902861,54.0008678 C138.331119,52.9851119 138.918617,52.0938847 139.66579,51.3271864 C140.412095,50.5604881 141.283363,49.9530305 142.279593,49.5048136 C143.27539,49.0565966 144.341044,48.8327051 145.476122,48.8327051 L149.658468,48.8327051 L149.658468,61.3498034 C149.658468,62.4853153 149.444556,63.5661559 149.016732,64.5914576 C148.587607,65.6171932 147.995336,66.5084203 147.239051,67.265139 C146.481898,68.0222915 145.590671,68.6245424 144.564936,69.0727593 C143.5392,69.5209763 142.438834,69.7448678 141.263837,69.7448678 L137.260692,69.7448678 L137.260692,57.2273356 Z" id="Stroke-44" stroke="#1B1A19"></path>
                    <path d="M164.506468,53.0749288 C164.506468,54.2503593 164.262183,55.3902102 163.774481,56.4953492 C163.286346,57.600922 162.584298,58.5320678 161.668773,59.2887864 C162.584298,60.0654644 163.286346,60.9914034 163.774481,62.0670373 C164.262183,63.1426712 164.506468,64.2977085 164.506468,65.5325831 L164.506468,69.7448678 L160.294183,69.7448678 L160.294183,65.5325831 C160.294183,64.9351051 160.190047,64.3827525 159.980475,63.8746576 C159.771336,63.3665627 159.482793,62.9187797 159.11398,62.5300068 C158.745166,62.1421017 158.317342,61.8383729 157.829641,61.6192542 C157.341071,61.4001356 156.818658,61.2903593 156.261098,61.2903593 L156.261098,69.7448678 L152.048814,69.7448678 L152.048814,48.8327051 L156.261098,48.8327051 L156.261098,57.0780746 C156.818658,57.0780746 157.341071,56.9735051 157.829641,56.7643661 C158.317342,56.5552271 158.745166,56.2671186 159.11398,55.8978712 C159.482793,55.5294915 159.771336,55.1016678 159.980475,54.6135322 C160.190047,54.1253966 160.294183,53.6125288 160.294183,53.0749288 L160.294183,48.8327051 L164.506468,48.8327051 L164.506468,53.0749288" id="Fill-45" fill="#1B1A19"></path>
                    <path d="M164.506468,53.0749288 C164.506468,54.2503593 164.262183,55.3902102 163.774481,56.4953492 C163.286346,57.600922 162.584298,58.5320678 161.668773,59.2887864 C162.584298,60.0654644 163.286346,60.9914034 163.774481,62.0670373 C164.262183,63.1426712 164.506468,64.2977085 164.506468,65.5325831 L164.506468,69.7448678 L160.294183,69.7448678 L160.294183,65.5325831 C160.294183,64.9351051 160.190047,64.3827525 159.980475,63.8746576 C159.771336,63.3665627 159.482793,62.9187797 159.11398,62.5300068 C158.745166,62.1421017 158.317342,61.8383729 157.829641,61.6192542 C157.341071,61.4001356 156.818658,61.2903593 156.261098,61.2903593 L156.261098,69.7448678 L152.048814,69.7448678 L152.048814,48.8327051 L156.261098,48.8327051 L156.261098,57.0780746 C156.818658,57.0780746 157.341071,56.9735051 157.829641,56.7643661 C158.317342,56.5552271 158.745166,56.2671186 159.11398,55.8978712 C159.482793,55.5294915 159.771336,55.1016678 159.980475,54.6135322 C160.190047,54.1253966 160.294183,53.6125288 160.294183,53.0749288 L160.294183,48.8327051 L164.506468,48.8327051 L164.506468,53.0749288 Z" id="Stroke-46" stroke="#1B1A19"></path>
                    <polygon id="Fill-47" fill="#1B1A19" points="166.89638 69.7448678 171.108664 69.7448678 171.108664 48.8327051 166.89638 48.8327051"></polygon>
                    <polygon id="Stroke-48" stroke="#1B1A19" points="166.89638 69.7448678 171.108664 69.7448678 171.108664 48.8327051 166.89638 48.8327051"></polygon>
                    <path d="M174.140746,53.8967322 C174.568569,52.8909559 175.160841,52.0144814 175.918427,51.2673085 C176.675146,50.5205695 177.565939,49.9335051 178.592108,49.5048136 C179.61741,49.0765559 180.727756,48.8626441 181.922712,48.8626441 L186.165369,48.8626441 L186.165369,53.0749288 L181.922712,53.0749288 C181.325234,53.0749288 180.772881,53.1847051 180.264786,53.4033898 C179.757125,53.6229424 179.313681,53.9166915 178.935756,54.2846373 C178.557397,54.6534508 178.258007,55.0817085 178.039322,55.5694102 C177.819769,56.0575458 177.710427,56.5704136 177.710427,57.1080136 L186.165369,57.1080136 L186.165369,61.3498034 L181.743512,61.3498034 C181.205912,61.3498034 180.693044,61.4595797 180.204908,61.6786983 C179.716773,61.8982508 179.288949,62.192 178.920569,62.5603797 C178.551756,62.9287593 178.258007,63.3717695 178.039322,63.8894102 C177.819769,64.4074847 177.710427,64.9650441 177.710427,65.5620881 L186.165369,65.5620881 L186.165369,69.7748068 L173.498142,69.7748068 L173.498142,65.5620881 C173.498142,64.7854102 173.607485,64.0343322 173.827037,63.3066847 C174.045722,62.5799051 174.334698,61.9277559 174.693098,61.3498034 L173.498142,61.3498034 L173.498142,57.1080136 C173.498142,55.9729356 173.712488,54.9025085 174.140746,53.8967322" id="Fill-49" fill="#1B1A19"></path>
                    <path d="M174.140746,53.8967322 C174.568569,52.8909559 175.160841,52.0144814 175.918427,51.2673085 C176.675146,50.5205695 177.565939,49.9335051 178.592108,49.5048136 C179.61741,49.0765559 180.727756,48.8626441 181.922712,48.8626441 L186.165369,48.8626441 L186.165369,53.0749288 L181.922712,53.0749288 C181.325234,53.0749288 180.772881,53.1847051 180.264786,53.4033898 C179.757125,53.6229424 179.313681,53.9166915 178.935756,54.2846373 C178.557397,54.6534508 178.258007,55.0817085 178.039322,55.5694102 C177.819769,56.0575458 177.710427,56.5704136 177.710427,57.1080136 L186.165369,57.1080136 L186.165369,61.3498034 L181.743512,61.3498034 C181.205912,61.3498034 180.693044,61.4595797 180.204908,61.6786983 C179.716773,61.8982508 179.288949,62.192 178.920569,62.5603797 C178.551756,62.9287593 178.258007,63.3717695 178.039322,63.8894102 C177.819769,64.4074847 177.710427,64.9650441 177.710427,65.5620881 L186.165369,65.5620881 L186.165369,69.7748068 L173.498142,69.7748068 L173.498142,65.5620881 C173.498142,64.7854102 173.607485,64.0343322 173.827037,63.3066847 C174.045722,62.5799051 174.334698,61.9277559 174.693098,61.3498034 L173.498142,61.3498034 L173.498142,57.1080136 C173.498142,55.9729356 173.712488,54.9025085 174.140746,53.8967322 Z" id="Stroke-50" stroke="#1B1A19"></path>
                    <path d="M201.132258,61.3801763 C201.132258,62.5152542 200.908366,63.5908881 200.460149,64.6062102 C200.012366,65.6219661 199.409247,66.5084203 198.652963,67.265139 C197.89581,68.0222915 197.004583,68.6245424 195.978847,69.0727593 C194.953112,69.5209763 193.872705,69.7448678 192.737627,69.7448678 L188.555281,69.7448678 L188.555281,65.5620881 L192.737627,65.5620881 C193.314712,65.5620881 193.857953,65.4531797 194.365614,65.234061 C194.873708,65.0149424 195.316719,64.7159864 195.695512,64.3376271 C196.073437,63.9592678 196.371959,63.5162576 196.591512,63.0081627 C196.810197,62.5005017 196.919973,61.9581288 196.919973,61.3801763 L188.555281,61.3801763 L188.555281,57.1678915 C188.555281,56.0328136 188.779173,54.9623864 189.22739,53.9561763 C189.675607,52.9508339 190.282631,52.0695864 191.049763,51.3124339 C191.816027,50.5557153 192.702481,49.9530305 193.708692,49.5048136 C194.714034,49.0565966 195.784895,48.8327051 196.919973,48.8327051 L201.132258,48.8327051 L201.132258,53.0150508 L196.919973,53.0150508 C196.342454,53.0150508 195.799647,53.1300339 195.291986,53.3582644 C194.783892,53.5877966 194.340881,53.8919593 193.962088,54.2698847 C193.583729,54.6482441 193.285207,55.0916881 193.066088,55.5993492 C192.846969,56.1070102 192.737627,56.6302915 192.737627,57.1678915 L201.132258,57.1678915 L201.132258,61.3801763" id="Fill-51" fill="#1B1A19"></path>
                    <path d="M201.132258,61.3801763 C201.132258,62.5152542 200.908366,63.5908881 200.460149,64.6062102 C200.012366,65.6219661 199.409247,66.5084203 198.652963,67.265139 C197.89581,68.0222915 197.004583,68.6245424 195.978847,69.0727593 C194.953112,69.5209763 193.872705,69.7448678 192.737627,69.7448678 L188.555281,69.7448678 L188.555281,65.5620881 L192.737627,65.5620881 C193.314712,65.5620881 193.857953,65.4531797 194.365614,65.234061 C194.873708,65.0149424 195.316719,64.7159864 195.695512,64.3376271 C196.073437,63.9592678 196.371959,63.5162576 196.591512,63.0081627 C196.810197,62.5005017 196.919973,61.9581288 196.919973,61.3801763 L188.555281,61.3801763 L188.555281,57.1678915 C188.555281,56.0328136 188.779173,54.9623864 189.22739,53.9561763 C189.675607,52.9508339 190.282631,52.0695864 191.049763,51.3124339 C191.816027,50.5557153 192.702481,49.9530305 193.708692,49.5048136 C194.714034,49.0565966 195.784895,48.8327051 196.919973,48.8327051 L201.132258,48.8327051 L201.132258,53.0150508 L196.919973,53.0150508 C196.342454,53.0150508 195.799647,53.1300339 195.291986,53.3582644 C194.783892,53.5877966 194.340881,53.8919593 193.962088,54.2698847 C193.583729,54.6482441 193.285207,55.0916881 193.066088,55.5993492 C192.846969,56.1070102 192.737627,56.6302915 192.737627,57.1678915 L201.132258,57.1678915 L201.132258,61.3801763 Z" id="Stroke-52" stroke="#1B1A19"></path>
                    <polyline id="Fill-53" fill="#009FB9" points="219.122115 45.6565695 219.122115 3.86044746 210.703186 3.86044746 210.703186 45.6504949 206.151593 59.1833492 210.692773 59.1833492 206.151593 72.5378712 219.685315 54.7024814 215.174075 54.7024814 219.122115 45.6565695"></polyline>
                    <polygon id="Stroke-54" stroke="#0A0B09" points="219.122115 45.6565695 219.122115 3.86044746 210.703186 3.86044746 210.703186 45.6504949 206.151593 59.1833492 210.692773 59.1833492 206.151593 72.5378712 219.685315 54.7024814 215.174075 54.7024814"></polygon>
                    <path d="M13.3393356,5.20423051 C11.3286508,6.09936271 9.55704407,7.30429831 8.02538305,8.8164339 C6.49242034,10.3298712 5.27837288,12.0910644 4.38324068,14.1008814 C3.48767458,16.1111322 3.03945763,18.2502508 3.03945763,20.519539 L3.03945763,28.9380339 L19.7579932,28.9380339 C19.7579932,30.0930712 19.5388746,31.1773831 19.1010712,32.1922712 C18.6628339,33.2075932 18.0657898,34.0936136 17.309939,34.8494644 C16.5532203,35.6057492 15.6680678,36.2032271 14.6531797,36.6405966 C13.6378576,37.0792678 12.5531119,37.2975186 11.3989424,37.2975186 L3.03945763,37.2975186 L3.03945763,45.6565695 L11.3989424,45.6565695 C13.6677966,45.6565695 15.8268746,45.2087864 17.877478,44.3132203 C19.9267797,43.4176542 21.7079322,42.2140203 23.2213695,40.7010169 C24.7335051,39.1884475 25.9380068,37.4168407 26.8335729,35.3870644 C27.729139,33.3568542 28.176922,31.207322 28.176922,28.9380339 L28.176922,20.519539 L11.3989424,20.519539 C11.3989424,19.444339 11.6171932,18.3995119 12.0558644,17.3846237 C12.4932339,16.3693017 13.090278,15.4841492 13.8469966,14.7274305 C14.6024136,13.9720136 15.4888678,13.3645559 16.5041898,12.9063593 C17.519078,12.4490305 18.6033898,12.2199322 19.7579932,12.2199322 L28.176922,12.2199322 L28.176922,3.86044746 L19.7579932,3.86044746 C17.489139,3.86044746 15.3491525,4.30866441 13.3393356,5.20423051" id="Fill-55" fill="#009FB9"></path>
                    <path d="M13.3393356,5.20423051 C11.3286508,6.09936271 9.55704407,7.30429831 8.02538305,8.8164339 C6.49242034,10.3298712 5.27837288,12.0910644 4.38324068,14.1008814 C3.48767458,16.1111322 3.03945763,18.2502508 3.03945763,20.519539 L3.03945763,28.9380339 L19.7579932,28.9380339 C19.7579932,30.0930712 19.5388746,31.1773831 19.1010712,32.1922712 C18.6628339,33.2075932 18.0657898,34.0936136 17.309939,34.8494644 C16.5532203,35.6057492 15.6680678,36.2032271 14.6531797,36.6405966 C13.6378576,37.0792678 12.5531119,37.2975186 11.3989424,37.2975186 L3.03945763,37.2975186 L3.03945763,45.6565695 L11.3989424,45.6565695 C13.6677966,45.6565695 15.8268746,45.2087864 17.877478,44.3132203 C19.9267797,43.4176542 21.7079322,42.2140203 23.2213695,40.7010169 C24.7335051,39.1884475 25.9380068,37.4168407 26.8335729,35.3870644 C27.729139,33.3568542 28.176922,31.207322 28.176922,28.9380339 L28.176922,20.519539 L11.3989424,20.519539 C11.3989424,19.444339 11.6171932,18.3995119 12.0558644,17.3846237 C12.4932339,16.3693017 13.090278,15.4841492 13.8469966,14.7274305 C14.6024136,13.9720136 15.4888678,13.3645559 16.5041898,12.9063593 C17.519078,12.4490305 18.6033898,12.2199322 19.7579932,12.2199322 L28.176922,12.2199322 L28.176922,3.86044746 L19.7579932,3.86044746 C17.489139,3.86044746 15.3491525,4.30866441 13.3393356,5.20423051 Z" id="Stroke-56" stroke="#0A0B09"></path>
                    <path d="M49.4327322,12.3392542 C49.4327322,13.4140203 49.2235932,14.439322 48.8057492,15.4142915 C48.3879051,16.3901288 47.8103864,17.2457763 47.0744949,17.9816678 C46.3373017,18.718861 45.4816542,19.2955119 44.5066847,19.712922 C43.5308475,20.1312 42.4860203,20.340339 41.3722034,20.340339 L41.3722034,3.86044746 L32.9532746,3.86044746 L32.9532746,45.6565695 L36.8674712,54.7063864 L32.3562305,54.7063864 L45.8899525,72.5413424 L41.3487729,59.1872542 L45.8899525,59.1872542 L41.3722034,45.6565695 L41.3722034,28.7592678 C42.4860203,28.7592678 43.5308475,28.9783864 44.5066847,29.4161898 C45.4816542,29.854861 46.3373017,30.4610169 47.0744949,31.237261 C47.8103864,32.0130712 48.3879051,32.9090712 48.8057492,33.9239593 C49.2235932,34.9388475 49.4327322,36.0435525 49.4327322,37.2376407 L49.4327322,45.6565695 L57.851661,45.6565695 L57.851661,37.2376407 C57.851661,34.7704949 57.3639593,32.4608542 56.3889898,30.311322 C55.4127186,28.1622237 54.0099254,26.3112136 52.1793085,24.7587254 C54.0099254,23.2461559 55.4127186,21.3851661 56.3889898,19.1757559 C57.3639593,16.9663458 57.851661,14.6883797 57.851661,12.3392542 L57.851661,3.86044746 L49.4327322,3.86044746 L49.4327322,12.3392542" id="Fill-57" fill="#009FB9"></path>
                    <path d="M49.4327322,12.3392542 C49.4327322,13.4140203 49.2235932,14.439322 48.8057492,15.4142915 C48.3879051,16.3901288 47.8103864,17.2457763 47.0744949,17.9816678 C46.3373017,18.718861 45.4816542,19.2955119 44.5066847,19.712922 C43.5308475,20.1312 42.4860203,20.340339 41.3722034,20.340339 L41.3722034,3.86044746 L32.9532746,3.86044746 L32.9532746,45.6565695 L36.8674712,54.7063864 L32.3562305,54.7063864 L45.8899525,72.5413424 L41.3487729,59.1872542 L45.8899525,59.1872542 L41.3722034,45.6565695 L41.3722034,28.7592678 C42.4860203,28.7592678 43.5308475,28.9783864 44.5066847,29.4161898 C45.4816542,29.854861 46.3373017,30.4610169 47.0744949,31.237261 C47.8103864,32.0130712 48.3879051,32.9090712 48.8057492,33.9239593 C49.2235932,34.9388475 49.4327322,36.0435525 49.4327322,37.2376407 L49.4327322,45.6565695 L57.851661,45.6565695 L57.851661,37.2376407 C57.851661,34.7704949 57.3639593,32.4608542 56.3889898,30.311322 C55.4127186,28.1622237 54.0099254,26.3112136 52.1793085,24.7587254 C54.0099254,23.2461559 55.4127186,21.3851661 56.3889898,19.1757559 C57.3639593,16.9663458 57.851661,14.6883797 57.851661,12.3392542 L57.851661,3.86044746 L49.4327322,3.86044746 L49.4327322,12.3392542 Z" id="Stroke-58" stroke="#0A0B09"></path>
                    <path d="M79.2272271,20.5794169 C78.0721898,20.5794169 76.9883119,20.3607322 75.9729898,19.9224949 C74.9581017,19.4846915 74.0716475,18.8876475 73.3162305,18.1309288 C72.5595119,17.3755119 71.9728814,16.4890576 71.5546034,15.4741695 C71.1367593,14.4588475 70.9276203,13.3944949 70.9276203,12.2798102 L70.9276203,3.86044746 L62.6280136,3.86044746 L62.6280136,12.2798102 C62.6280136,14.6289356 63.0554034,16.8079729 63.9119186,18.8177898 C64.7675661,20.8280407 65.9421288,22.5792542 67.434739,24.0718644 C68.9273492,25.5649085 70.6785627,26.7394712 72.6892475,27.5951186 C74.6986305,28.4512 76.8781017,28.8790237 79.2272271,28.8790237 C79.2272271,30.072678 79.0180881,31.1877966 78.6002441,32.2226441 C78.1824,33.2579254 77.5944678,34.143078 76.8390508,34.8794034 C76.0823322,35.6165966 75.2062915,36.2032271 74.2117966,36.6405966 C73.2164339,37.0792678 72.1217085,37.2975186 70.9276203,37.2975186 L62.6280136,37.2975186 L62.6280136,45.6565695 L70.9276203,45.6565695 C73.1565559,45.6565695 75.2865627,45.2087864 77.316339,44.3132203 C79.3465492,43.4176542 81.1277017,42.2036068 82.6606644,40.671078 C84.1923254,39.1389831 85.4068068,37.3573966 86.3028068,35.3271864 C87.1983729,33.2969763 87.6461559,31.1474441 87.6461559,28.8790237 L87.6461559,3.86044746 L79.2272271,3.86044746 L79.2272271,20.5794169" id="Fill-59" fill="#009FB9"></path>
                    <path d="M79.2272271,20.5794169 C78.0721898,20.5794169 76.9883119,20.3607322 75.9729898,19.9224949 C74.9581017,19.4846915 74.0716475,18.8876475 73.3162305,18.1309288 C72.5595119,17.3755119 71.9728814,16.4890576 71.5546034,15.4741695 C71.1367593,14.4588475 70.9276203,13.3944949 70.9276203,12.2798102 L70.9276203,3.86044746 L62.6280136,3.86044746 L62.6280136,12.2798102 C62.6280136,14.6289356 63.0554034,16.8079729 63.9119186,18.8177898 C64.7675661,20.8280407 65.9421288,22.5792542 67.434739,24.0718644 C68.9273492,25.5649085 70.6785627,26.7394712 72.6892475,27.5951186 C74.6986305,28.4512 76.8781017,28.8790237 79.2272271,28.8790237 C79.2272271,30.072678 79.0180881,31.1877966 78.6002441,32.2226441 C78.1824,33.2579254 77.5944678,34.143078 76.8390508,34.8794034 C76.0823322,35.6165966 75.2062915,36.2032271 74.2117966,36.6405966 C73.2164339,37.0792678 72.1217085,37.2975186 70.9276203,37.2975186 L62.6280136,37.2975186 L62.6280136,45.6565695 L70.9276203,45.6565695 C73.1565559,45.6565695 75.2865627,45.2087864 77.316339,44.3132203 C79.3465492,43.4176542 81.1277017,42.2036068 82.6606644,40.671078 C84.1923254,39.1389831 85.4068068,37.3573966 86.3028068,35.3271864 C87.1983729,33.2969763 87.6461559,31.1474441 87.6461559,28.8790237 L87.6461559,3.86044746 L79.2272271,3.86044746 L79.2272271,20.5794169 Z" id="Stroke-60" stroke="#0A0B09"></path>
                    <path d="M109.260366,28.8790237 C109.260366,30.072678 109.041247,31.1773831 108.603444,32.1922712 C108.165207,33.2075932 107.578142,34.0936136 106.842251,34.8494644 C106.105058,35.6057492 105.219905,36.2032271 104.185058,36.6405966 C103.149776,37.0792678 102.035525,37.2975186 100.841437,37.2975186 L100.841437,12.3392542 C102.035525,12.3392542 103.149776,12.5583729 104.185058,12.9961763 C105.219905,13.4348475 106.105058,14.0210441 106.842251,14.7578034 C107.578142,15.4945627 108.165207,16.3502102 108.603444,17.3251797 C109.041247,18.3010169 109.260366,19.3250169 109.260366,20.4002169 L109.260366,28.8790237 Z M112.514603,8.78649492 C111.021993,7.29388475 109.269912,6.10977627 107.260095,5.23373559 C105.24941,4.35899661 103.110292,3.92032542 100.841437,3.92032542 L92.4225085,3.92032542 L92.4225085,45.7164475 L100.841437,45.7164475 C103.110292,45.7164475 105.24941,45.2894915 107.260095,44.4325424 C109.269912,43.5773288 111.021993,42.3932203 112.514603,40.8802169 C114.007214,39.3676475 115.190888,37.5869288 116.067363,35.5358915 C116.942102,33.4865898 117.380773,31.2667661 117.380773,28.8790237 L117.380773,20.4002169 C117.380773,18.1309288 116.942102,16.0022237 116.067363,14.0110644 C115.190888,12.0212068 114.007214,10.2791051 112.514603,8.78649492 L112.514603,8.78649492 Z" id="Fill-61" fill="#009FB9"></path>
                    <path d="M109.260366,28.8790237 C109.260366,30.072678 109.041247,31.1773831 108.603444,32.1922712 C108.165207,33.2075932 107.578142,34.0936136 106.842251,34.8494644 C106.105058,35.6057492 105.219905,36.2032271 104.185058,36.6405966 C103.149776,37.0792678 102.035525,37.2975186 100.841437,37.2975186 L100.841437,12.3392542 C102.035525,12.3392542 103.149776,12.5583729 104.185058,12.9961763 C105.219905,13.4348475 106.105058,14.0210441 106.842251,14.7578034 C107.578142,15.4945627 108.165207,16.3502102 108.603444,17.3251797 C109.041247,18.3010169 109.260366,19.3250169 109.260366,20.4002169 L109.260366,28.8790237 Z M112.514603,8.78649492 C111.021993,7.29388475 109.269912,6.10977627 107.260095,5.23373559 C105.24941,4.35899661 103.110292,3.92032542 100.841437,3.92032542 L92.4225085,3.92032542 L92.4225085,45.7164475 L100.841437,45.7164475 C103.110292,45.7164475 105.24941,45.2894915 107.260095,44.4325424 C109.269912,43.5773288 111.021993,42.3932203 112.514603,40.8802169 C114.007214,39.3676475 115.190888,37.5869288 116.067363,35.5358915 C116.942102,33.4865898 117.380773,31.2667661 117.380773,28.8790237 L117.380773,20.4002169 C117.380773,18.1309288 116.942102,16.0022237 116.067363,14.0110644 C115.190888,12.0212068 114.007214,10.2791051 112.514603,8.78649492 Z" id="Stroke-62" stroke="#0A0B09"></path>
                    <path d="M138.576705,28.8790237 C138.576705,30.072678 138.357153,31.1877966 137.919349,32.2226441 C137.481546,33.2579254 136.894481,34.1534915 136.15859,34.9093424 C135.421397,35.6656271 134.53581,36.2526915 133.501397,36.6709695 C132.465681,37.0883797 131.351864,37.2975186 130.157776,37.2975186 L130.157776,20.638861 C130.157776,19.5640949 130.376027,18.5192678 130.814264,17.5043797 C131.251634,16.4890576 131.838698,15.5930576 132.575892,14.8172475 C133.311783,14.0410034 134.196936,13.424 135.232651,12.9662373 C136.267498,12.5089085 137.382183,12.2798102 138.576705,12.2798102 L138.576705,28.8790237 Z M132.187553,5.20423051 C130.196827,6.09936271 128.456027,7.31427797 126.962983,8.84637288 C125.470373,10.3793356 124.29581,12.1600542 123.440163,14.1902644 C122.584081,16.2204746 122.156692,18.3700068 122.156692,20.638861 L122.156692,45.6565695 L130.157776,45.6565695 C132.506034,45.6565695 134.704597,45.2087864 136.755634,44.3132203 C138.804936,43.4176542 140.586088,42.2140203 142.099092,40.7010169 C143.611227,39.1884475 144.795336,37.4077288 145.652285,35.3571254 C146.507498,33.3073898 146.935756,31.1474441 146.935756,28.8790237 L146.935756,3.86044746 L138.576705,3.86044746 C136.307417,3.86044746 134.17741,4.30866441 132.187553,5.20423051 L132.187553,5.20423051 Z" id="Fill-63" fill="#009FB9"></path>
                    <path d="M138.576705,28.8790237 C138.576705,30.072678 138.357153,31.1877966 137.919349,32.2226441 C137.481546,33.2579254 136.894481,34.1534915 136.15859,34.9093424 C135.421397,35.6656271 134.53581,36.2526915 133.501397,36.6709695 C132.465681,37.0883797 131.351864,37.2975186 130.157776,37.2975186 L130.157776,20.638861 C130.157776,19.5640949 130.376027,18.5192678 130.814264,17.5043797 C131.251634,16.4890576 131.838698,15.5930576 132.575892,14.8172475 C133.311783,14.0410034 134.196936,13.424 135.232651,12.9662373 C136.267498,12.5089085 137.382183,12.2798102 138.576705,12.2798102 L138.576705,28.8790237 Z M132.187553,5.20423051 C130.196827,6.09936271 128.456027,7.31427797 126.962983,8.84637288 C125.470373,10.3793356 124.29581,12.1600542 123.440163,14.1902644 C122.584081,16.2204746 122.156692,18.3700068 122.156692,20.638861 L122.156692,45.6565695 L130.157776,45.6565695 C132.506034,45.6565695 134.704597,45.2087864 136.755634,44.3132203 C138.804936,43.4176542 140.586088,42.2140203 142.099092,40.7010169 C143.611227,39.1884475 144.795336,37.4077288 145.652285,35.3571254 C146.507498,33.3073898 146.935756,31.1474441 146.935756,28.8790237 L146.935756,3.86044746 L138.576705,3.86044746 C136.307417,3.86044746 134.17741,4.30866441 132.187553,5.20423051 Z" id="Stroke-64" stroke="#0A0B09"></path>
                    <polyline id="Fill-65" fill="#009FB9" points="159.713193 3.86044746 151.712108 3.86044746 151.712108 12.2798102 159.713193 12.2798102 159.713193 45.6565695 168.132122 45.6565695 168.132122 12.2798102 176.431295 12.2798102 176.431295 3.86044746 159.713193 3.86044746"></polyline>
                    <polygon id="Stroke-66" stroke="#0A0B09" points="159.713193 3.86044746 151.712108 3.86044746 151.712108 12.2798102 159.713193 12.2798102 159.713193 45.6565695 168.132122 45.6565695 168.132122 12.2798102 176.431295 12.2798102 176.431295 3.86044746"></polygon>
                    <polyline id="Fill-67" fill="#009FB9" points="189.208298 3.86044746 181.207647 3.86044746 181.207647 12.2798102 189.208298 12.2798102 189.208298 45.6565695 197.627661 45.6565695 197.627661 12.2798102 205.926834 12.2798102 205.926834 3.86044746 189.208298 3.86044746"></polyline>
                    <polygon id="Stroke-68" stroke="#0A0B09" points="189.208298 3.86044746 181.207647 3.86044746 181.207647 12.2798102 189.208298 12.2798102 189.208298 45.6565695 197.627661 45.6565695 197.627661 12.2798102 205.926834 12.2798102 205.926834 3.86044746"></polygon>
                    <path d="M231.660041,20.5794169 L231.660041,14.5482305 C233.052854,15.1457085 234.266902,15.9813966 235.302617,17.0561627 C236.337464,18.1309288 237.232597,19.3054915 237.989315,20.5794169 L231.660041,20.5794169 Z M242.28838,28.8790237 L248.557776,28.8790237 C248.557776,25.4555661 247.890875,22.2212881 246.557505,19.1757559 C245.223268,16.1310915 243.41261,13.4738983 241.124231,11.2046102 C238.834549,8.93618983 236.168244,7.13507797 233.123146,5.80127458 C230.078047,4.46790508 226.863295,3.80100339 223.48019,3.80100339 L223.48019,45.6565695 L231.660041,45.6565695 L231.660041,31.1474441 C232.893614,31.8251932 234.038237,32.6604475 235.093478,33.6553763 C236.147851,34.650739 237.053831,35.7749695 237.810115,37.0289356 C238.565966,38.2824678 239.153898,39.6362305 239.571742,41.088922 C239.99002,42.5429153 240.198725,44.0654644 240.198725,45.6565695 L248.557776,45.6565695 C248.557776,42.2339797 247.940339,39.1389831 246.706766,36.3720136 C245.472325,33.6059119 243.999675,31.1083932 242.28838,28.8790237 L242.28838,28.8790237 Z" id="Fill-69" fill="#009FB9"></path>
                    <path d="M231.660041,20.5794169 L231.660041,14.5482305 C233.052854,15.1457085 234.266902,15.9813966 235.302617,17.0561627 C236.337464,18.1309288 237.232597,19.3054915 237.989315,20.5794169 L231.660041,20.5794169 Z M242.28838,28.8790237 L248.557776,28.8790237 C248.557776,25.4555661 247.890875,22.2212881 246.557505,19.1757559 C245.223268,16.1310915 243.41261,13.4738983 241.124231,11.2046102 C238.834549,8.93618983 236.168244,7.13507797 233.123146,5.80127458 C230.078047,4.46790508 226.863295,3.80100339 223.48019,3.80100339 L223.48019,45.6565695 L231.660041,45.6565695 L231.660041,31.1474441 C232.893614,31.8251932 234.038237,32.6604475 235.093478,33.6553763 C236.147851,34.650739 237.053831,35.7749695 237.810115,37.0289356 C238.565966,38.2824678 239.153898,39.6362305 239.571742,41.088922 C239.99002,42.5429153 240.198725,44.0654644 240.198725,45.6565695 L248.557776,45.6565695 C248.557776,42.2339797 247.940339,39.1389831 246.706766,36.3720136 C245.472325,33.6059119 243.999675,31.1083932 242.28838,28.8790237 Z" id="Stroke-70" stroke="#0A0B09"></path>
                    <path d="M51.1210305,53.2714847 C51.5488542,52.2661424 52.1411254,51.3892339 52.8987119,50.6424949 C53.6549966,49.8957559 54.5462237,49.3086915 55.5723932,48.8795661 C56.5976949,48.4517424 57.7084746,48.2378305 58.9034305,48.2378305 L63.1456542,48.2378305 L63.1456542,52.4501153 L58.9034305,52.4501153 C58.3059525,52.4501153 57.7531661,52.5598915 57.2455051,52.7785763 C56.7374102,52.9976949 56.2939661,53.2914441 55.9160407,53.6598237 C55.5372475,54.0282034 55.2387254,54.4568949 55.0196068,54.9445966 C54.8000542,55.4327322 54.6911458,55.9451661 54.6911458,56.4832 L63.1456542,56.4832 L63.1456542,60.7249898 L58.7242305,60.7249898 C58.1861966,60.7249898 57.6733288,60.8347661 57.1856271,61.0538847 C56.6970576,61.2734373 56.2692339,61.5667525 55.9008542,61.9351322 C55.5320407,62.3039458 55.2387254,62.746522 55.0196068,63.2645966 C54.8000542,63.7826712 54.6911458,64.3397966 54.6911458,64.9372746 L63.1456542,64.9372746 L63.1456542,69.1499932 L50.4784271,69.1499932 L50.4784271,64.9372746 C50.4784271,64.1605966 50.5877695,63.4095186 50.807322,62.6818712 C51.0264407,61.9550915 51.3154169,61.3029424 51.6738169,60.7249898 L50.4784271,60.7249898 L50.4784271,56.4832 C50.4784271,55.3476881 50.692339,54.2776949 51.1210305,53.2714847" id="Fill-71" fill="#0A0B09"></path>
                    <path d="M51.1210305,53.2714847 C51.5488542,52.2661424 52.1411254,51.3892339 52.8987119,50.6424949 C53.6549966,49.8957559 54.5462237,49.3086915 55.5723932,48.8795661 C56.5976949,48.4517424 57.7084746,48.2378305 58.9034305,48.2378305 L63.1456542,48.2378305 L63.1456542,52.4501153 L58.9034305,52.4501153 C58.3059525,52.4501153 57.7531661,52.5598915 57.2455051,52.7785763 C56.7374102,52.9976949 56.2939661,53.2914441 55.9160407,53.6598237 C55.5372475,54.0282034 55.2387254,54.4568949 55.0196068,54.9445966 C54.8000542,55.4327322 54.6911458,55.9451661 54.6911458,56.4832 L63.1456542,56.4832 L63.1456542,60.7249898 L58.7242305,60.7249898 C58.1861966,60.7249898 57.6733288,60.8347661 57.1856271,61.0538847 C56.6970576,61.2734373 56.2692339,61.5667525 55.9008542,61.9351322 C55.5320407,62.3039458 55.2387254,62.746522 55.0196068,63.2645966 C54.8000542,63.7826712 54.6911458,64.3397966 54.6911458,64.9372746 L63.1456542,64.9372746 L63.1456542,69.1499932 L50.4784271,69.1499932 L50.4784271,64.9372746 C50.4784271,64.1605966 50.5877695,63.4095186 50.807322,62.6818712 C51.0264407,61.9550915 51.3154169,61.3029424 51.6738169,60.7249898 L50.4784271,60.7249898 L50.4784271,56.4832 C50.4784271,55.3476881 50.692339,54.2776949 51.1210305,53.2714847 Z" id="Stroke-72" stroke="#FFFFFE"></path>
                    <path d="M69.7478508,56.602522 L73.9301966,56.602522 C73.9301966,56.0449627 73.8108746,55.5073627 73.5717966,54.9892881 C73.3327186,54.4716475 73.0190102,54.0182237 72.6306712,53.6298847 C72.2423322,53.2415458 71.7988881,52.9278373 71.3012068,52.6891932 C70.8030915,52.4501153 70.2854508,52.3303593 69.7478508,52.3303593 L69.7478508,56.602522 Z M65.5355661,69.1200542 L65.5355661,48.2074576 L69.7478508,48.2074576 C70.8629695,48.2074576 71.9186441,48.4317831 72.9144407,48.8795661 C73.9102373,49.3277831 74.7762983,49.9304678 75.5134915,50.6871864 C76.2502508,51.444339 76.8329763,52.3355661 77.2612339,53.3608678 C77.6890576,54.3870373 77.9034034,55.4674441 77.9034034,56.602522 L77.9034034,60.7549288 L69.7478508,60.7549288 L69.7478508,69.1200542 L65.5355661,69.1200542 L65.5355661,69.1200542 Z" id="Fill-73" fill="#0A0B09"></path>
                    <path d="M69.7478508,56.602522 L73.9301966,56.602522 C73.9301966,56.0449627 73.8108746,55.5073627 73.5717966,54.9892881 C73.3327186,54.4716475 73.0190102,54.0182237 72.6306712,53.6298847 C72.2423322,53.2415458 71.7988881,52.9278373 71.3012068,52.6891932 C70.8030915,52.4501153 70.2854508,52.3303593 69.7478508,52.3303593 L69.7478508,56.602522 Z M65.5355661,69.1200542 L65.5355661,48.2074576 L69.7478508,48.2074576 C70.8629695,48.2074576 71.9186441,48.4317831 72.9144407,48.8795661 C73.9102373,49.3277831 74.7762983,49.9304678 75.5134915,50.6871864 C76.2502508,51.444339 76.8329763,52.3355661 77.2612339,53.3608678 C77.6890576,54.3870373 77.9034034,55.4674441 77.9034034,56.602522 L77.9034034,60.7549288 L69.7478508,60.7549288 L69.7478508,69.1200542 L65.5355661,69.1200542 Z" id="Stroke-74" stroke="#FFFFFE"></path>
                    <polygon id="Fill-75" fill="#0A0B09" points="80.2928814 69.1200542 84.5056 69.1200542 84.5056 48.2074576 80.2928814 48.2074576"></polygon>
                    <polygon id="Stroke-76" stroke="#FFFFFE" points="80.2928814 69.1200542 84.5056 69.1200542 84.5056 48.2074576 80.2928814 48.2074576"></polygon>
                    <path d="M93.6769085,52.8085153 C93.1588339,53.0276339 92.7101831,53.3213831 92.3322576,53.6897627 C91.9538983,54.0585763 91.6549424,54.4864 91.4362576,54.9741017 C91.2167051,55.4626712 91.1077966,55.9751051 91.1077966,56.5127051 L91.1077966,60.6954847 C91.1077966,61.2929627 91.2167051,61.8453153 91.4362576,62.3534102 C91.6549424,62.8610712 91.9538983,63.3045153 92.3322576,63.6824407 C92.7101831,64.0612339 93.1588339,64.3601898 93.6769085,64.5788746 C94.1945492,64.7984271 94.7421288,64.9077695 95.3200814,64.9077695 L99.3531661,64.9077695 L99.3531661,69.1200542 L95.3200814,69.1200542 C94.1446508,69.1200542 93.0442847,68.9009356 92.0185492,68.4626983 C90.9928136,68.0248949 90.1015864,67.4269831 89.3448678,66.6702644 C88.5877153,65.9135458 87.9902373,65.0223186 87.5524339,63.9965831 C87.1141966,62.9708475 86.895078,61.8709153 86.895078,60.6954847 L86.895078,56.5127051 C86.895078,55.3776271 87.1141966,54.3072 87.5524339,53.3014237 C87.9902373,52.2956475 88.5877153,51.4191729 89.3448678,50.6724339 C90.1015864,49.925261 90.9928136,49.3381966 92.0185492,48.909939 C93.0442847,48.4816814 94.1446508,48.2673356 95.3200814,48.2673356 L99.3531661,48.2673356 L99.3531661,52.4796203 L95.3200814,52.4796203 C94.7421288,52.4796203 94.1945492,52.5893966 93.6769085,52.8085153" id="Fill-77" fill="#0A0B09"></path>
                    <path d="M93.6769085,52.8085153 C93.1588339,53.0276339 92.7101831,53.3213831 92.3322576,53.6897627 C91.9538983,54.0585763 91.6549424,54.4864 91.4362576,54.9741017 C91.2167051,55.4626712 91.1077966,55.9751051 91.1077966,56.5127051 L91.1077966,60.6954847 C91.1077966,61.2929627 91.2167051,61.8453153 91.4362576,62.3534102 C91.6549424,62.8610712 91.9538983,63.3045153 92.3322576,63.6824407 C92.7101831,64.0612339 93.1588339,64.3601898 93.6769085,64.5788746 C94.1945492,64.7984271 94.7421288,64.9077695 95.3200814,64.9077695 L99.3531661,64.9077695 L99.3531661,69.1200542 L95.3200814,69.1200542 C94.1446508,69.1200542 93.0442847,68.9009356 92.0185492,68.4626983 C90.9928136,68.0248949 90.1015864,67.4269831 89.3448678,66.6702644 C88.5877153,65.9135458 87.9902373,65.0223186 87.5524339,63.9965831 C87.1141966,62.9708475 86.895078,61.8709153 86.895078,60.6954847 L86.895078,56.5127051 C86.895078,55.3776271 87.1141966,54.3072 87.5524339,53.3014237 C87.9902373,52.2956475 88.5877153,51.4191729 89.3448678,50.6724339 C90.1015864,49.925261 90.9928136,49.3381966 92.0185492,48.909939 C93.0442847,48.4816814 94.1446508,48.2673356 95.3200814,48.2673356 L99.3531661,48.2673356 L99.3531661,52.4796203 L95.3200814,52.4796203 C94.7421288,52.4796203 94.1945492,52.5893966 93.6769085,52.8085153 Z" id="Stroke-78" stroke="#FFFFFE"></path>
                    <path d="M113.78202,52.8085153 C113.263946,53.0276339 112.815729,53.3213831 112.437803,53.6897627 C112.05901,54.0585763 111.760488,54.4864 111.541369,54.9741017 C111.322251,55.4626712 111.212908,55.9751051 111.212908,56.5127051 L111.212908,60.6954847 C111.212908,61.2929627 111.322251,61.8453153 111.541369,62.3534102 C111.760488,62.8610712 112.05901,63.3045153 112.437803,63.6824407 C112.815729,64.0612339 113.263946,64.3601898 113.78202,64.5788746 C114.299661,64.7984271 114.847241,64.9077695 115.425193,64.9077695 L119.458278,64.9077695 L119.458278,69.1200542 L115.425193,69.1200542 C114.249763,69.1200542 113.149397,68.9009356 112.124095,68.4626983 C111.097925,68.0248949 110.206698,67.4269831 109.450414,66.6702644 C108.692827,65.9135458 108.095349,65.0223186 107.65798,63.9965831 C107.219308,62.9708475 107.000624,61.8709153 107.000624,60.6954847 L107.000624,56.5127051 C107.000624,55.3776271 107.219308,54.3072 107.65798,53.3014237 C108.095349,52.2956475 108.692827,51.4191729 109.450414,50.6724339 C110.206698,49.925261 111.097925,49.3381966 112.124095,48.909939 C113.149397,48.4816814 114.249763,48.2673356 115.425193,48.2673356 L119.458278,48.2673356 L119.458278,52.4796203 L115.425193,52.4796203 C114.847241,52.4796203 114.299661,52.5893966 113.78202,52.8085153" id="Fill-79" fill="#0A0B09"></path>
                    <path d="M113.78202,52.8085153 C113.263946,53.0276339 112.815729,53.3213831 112.437803,53.6897627 C112.05901,54.0585763 111.760488,54.4864 111.541369,54.9741017 C111.322251,55.4626712 111.212908,55.9751051 111.212908,56.5127051 L111.212908,60.6954847 C111.212908,61.2929627 111.322251,61.8453153 111.541369,62.3534102 C111.760488,62.8610712 112.05901,63.3045153 112.437803,63.6824407 C112.815729,64.0612339 113.263946,64.3601898 113.78202,64.5788746 C114.299661,64.7984271 114.847241,64.9077695 115.425193,64.9077695 L119.458278,64.9077695 L119.458278,69.1200542 L115.425193,69.1200542 C114.249763,69.1200542 113.149397,68.9009356 112.124095,68.4626983 C111.097925,68.0248949 110.206698,67.4269831 109.450414,66.6702644 C108.692827,65.9135458 108.095349,65.0223186 107.65798,63.9965831 C107.219308,62.9708475 107.000624,61.8709153 107.000624,60.6954847 L107.000624,56.5127051 C107.000624,55.3776271 107.219308,54.3072 107.65798,53.3014237 C108.095349,52.2956475 108.692827,51.4191729 109.450414,50.6724339 C110.206698,49.925261 111.097925,49.3381966 112.124095,48.909939 C113.149397,48.4816814 114.249763,48.2673356 115.425193,48.2673356 L119.458278,48.2673356 L119.458278,52.4796203 L115.425193,52.4796203 C114.847241,52.4796203 114.299661,52.5893966 113.78202,52.8085153 Z" id="Stroke-80" stroke="#FFFFFE"></path>
                    <path d="M128.390508,52.7633898 C127.872434,52.992922 127.429424,53.3014237 127.061044,53.6897627 C126.692231,54.0781017 126.398915,54.5263186 126.179797,55.0339797 C125.960244,55.5420746 125.851336,56.064922 125.851336,56.602522 L125.851336,64.9372746 C126.448814,64.9372746 127.005939,64.833139 127.524014,64.6235661 C128.042088,64.414861 128.484664,64.1211119 128.853478,63.7423186 C129.221858,63.3643932 129.515607,62.9161763 129.734725,62.3981017 C129.953844,61.880461 130.06362,61.3224678 130.06362,60.7249898 L130.06362,52.4197424 C129.466142,52.4197424 128.908149,52.5347254 128.390508,52.7633898 Z M121.847756,56.602522 C121.847756,55.4674441 122.061668,54.3913763 122.490359,53.3760542 C122.918183,52.3602983 123.506115,51.4690712 124.252854,50.701939 C124.999593,49.9356746 125.870861,49.3277831 126.867092,48.8795661 C127.862888,48.4317831 128.928542,48.2074576 130.06362,48.2074576 L134.245966,48.2074576 L134.245966,60.7249898 C134.245966,61.8600678 134.03162,62.9409085 133.603797,63.9666441 C133.175105,64.9923797 132.582834,65.8836068 131.826115,66.6403254 C131.068963,67.397478 130.178169,67.9997288 129.152,68.4479458 C128.126264,68.8957288 127.026332,69.1200542 125.851336,69.1200542 L121.847756,69.1200542 L121.847756,56.602522 L121.847756,56.602522 Z" id="Fill-81" fill="#0A0B09"></path>
                    <path d="M128.390508,52.7633898 C127.872434,52.992922 127.429424,53.3014237 127.061044,53.6897627 C126.692231,54.0781017 126.398915,54.5263186 126.179797,55.0339797 C125.960244,55.5420746 125.851336,56.064922 125.851336,56.602522 L125.851336,64.9372746 C126.448814,64.9372746 127.005939,64.833139 127.524014,64.6235661 C128.042088,64.414861 128.484664,64.1211119 128.853478,63.7423186 C129.221858,63.3643932 129.515607,62.9161763 129.734725,62.3981017 C129.953844,61.880461 130.06362,61.3224678 130.06362,60.7249898 L130.06362,52.4197424 C129.466142,52.4197424 128.908149,52.5347254 128.390508,52.7633898 Z M121.847756,56.602522 C121.847756,55.4674441 122.061668,54.3913763 122.490359,53.3760542 C122.918183,52.3602983 123.506115,51.4690712 124.252854,50.701939 C124.999593,49.9356746 125.870861,49.3277831 126.867092,48.8795661 C127.862888,48.4317831 128.928542,48.2074576 130.06362,48.2074576 L134.245966,48.2074576 L134.245966,60.7249898 C134.245966,61.8600678 134.03162,62.9409085 133.603797,63.9666441 C133.175105,64.9923797 132.582834,65.8836068 131.826115,66.6403254 C131.068963,67.397478 130.178169,67.9997288 129.152,68.4479458 C128.126264,68.8957288 127.026332,69.1200542 125.851336,69.1200542 L121.847756,69.1200542 L121.847756,56.602522 Z" id="Stroke-82" stroke="#FFFFFE"></path>
                    <path d="M143.178197,52.7633898 C142.660122,52.992922 142.217112,53.3014237 141.848732,53.6897627 C141.479919,54.0781017 141.186603,54.5263186 140.967485,55.0339797 C140.748366,55.5420746 140.639024,56.064922 140.639024,56.602522 L140.639024,64.9372746 C141.236502,64.9372746 141.793627,64.833139 142.311702,64.6235661 C142.829776,64.414861 143.272353,64.1211119 143.641166,63.7423186 C144.009546,63.3643932 144.302861,62.9161763 144.522414,62.3981017 C144.741532,61.880461 144.851308,61.3224678 144.851308,60.7249898 L144.851308,52.4197424 C144.253831,52.4197424 143.695837,52.5347254 143.178197,52.7633898 Z M136.635444,56.602522 C136.635444,55.4674441 136.84979,54.3913763 137.278047,53.3760542 C137.705871,52.3602983 138.293803,51.4690712 139.040542,50.701939 C139.787281,49.9356746 140.658549,49.3277831 141.65478,48.8795661 C142.650576,48.4317831 143.716231,48.2074576 144.851308,48.2074576 L149.033654,48.2074576 L149.033654,60.7249898 C149.033654,61.8600678 148.819308,62.9409085 148.391485,63.9666441 C147.962793,64.9923797 147.370522,65.8836068 146.613803,66.6403254 C145.856651,67.397478 144.965858,67.9997288 143.939688,68.4479458 C142.913953,68.8957288 141.81402,69.1200542 140.639024,69.1200542 L136.635444,69.1200542 L136.635444,56.602522 L136.635444,56.602522 Z" id="Fill-83" fill="#0A0B09"></path>
                    <path d="M143.178197,52.7633898 C142.660122,52.992922 142.217112,53.3014237 141.848732,53.6897627 C141.479919,54.0781017 141.186603,54.5263186 140.967485,55.0339797 C140.748366,55.5420746 140.639024,56.064922 140.639024,56.602522 L140.639024,64.9372746 C141.236502,64.9372746 141.793627,64.833139 142.311702,64.6235661 C142.829776,64.414861 143.272353,64.1211119 143.641166,63.7423186 C144.009546,63.3643932 144.302861,62.9161763 144.522414,62.3981017 C144.741532,61.880461 144.851308,61.3224678 144.851308,60.7249898 L144.851308,52.4197424 C144.253831,52.4197424 143.695837,52.5347254 143.178197,52.7633898 Z M136.635444,56.602522 C136.635444,55.4674441 136.84979,54.3913763 137.278047,53.3760542 C137.705871,52.3602983 138.293803,51.4690712 139.040542,50.701939 C139.787281,49.9356746 140.658549,49.3277831 141.65478,48.8795661 C142.650576,48.4317831 143.716231,48.2074576 144.851308,48.2074576 L149.033654,48.2074576 L149.033654,60.7249898 C149.033654,61.8600678 148.819308,62.9409085 148.391485,63.9666441 C147.962793,64.9923797 147.370522,65.8836068 146.613803,66.6403254 C145.856651,67.397478 144.965858,67.9997288 143.939688,68.4479458 C142.913953,68.8957288 141.81402,69.1200542 140.639024,69.1200542 L136.635444,69.1200542 L136.635444,56.602522 Z" id="Stroke-84" stroke="#FFFFFE"></path>
                    <path d="M163.88122,52.4501153 C163.88122,53.6255458 163.637369,54.7653966 163.149668,55.8705356 C162.661532,56.9756746 161.959485,57.9072542 161.043525,58.6639729 C161.959485,59.4406508 162.661532,60.3665898 163.149668,61.4417898 C163.637369,62.5178576 163.88122,63.6728949 163.88122,64.9077695 L163.88122,69.1200542 L159.668936,69.1200542 L159.668936,64.9077695 C159.668936,64.3102915 159.5648,63.7575051 159.355661,63.2494102 C159.146088,62.7413153 158.857546,62.2935322 158.489166,61.9051932 C158.120353,61.5168542 157.692529,61.2135593 157.204827,60.9940068 C156.716258,60.7748881 156.193844,60.6651119 155.635851,60.6651119 L155.635851,69.1200542 L151.423566,69.1200542 L151.423566,48.2074576 L155.635851,48.2074576 L155.635851,56.4528271 C156.193844,56.4528271 156.716258,56.3482576 157.204827,56.1395525 C157.692529,55.9299797 158.120353,55.6418712 158.489166,55.2730576 C158.857546,54.904678 159.146088,54.4768542 159.355661,53.9887186 C159.5648,53.5005831 159.668936,52.9877153 159.668936,52.4501153 L159.668936,48.2074576 L163.88122,48.2074576 L163.88122,52.4501153" id="Fill-85" fill="#0A0B09"></path>
                    <path d="M163.88122,52.4501153 C163.88122,53.6255458 163.637369,54.7653966 163.149668,55.8705356 C162.661532,56.9756746 161.959485,57.9072542 161.043525,58.6639729 C161.959485,59.4406508 162.661532,60.3665898 163.149668,61.4417898 C163.637369,62.5178576 163.88122,63.6728949 163.88122,64.9077695 L163.88122,69.1200542 L159.668936,69.1200542 L159.668936,64.9077695 C159.668936,64.3102915 159.5648,63.7575051 159.355661,63.2494102 C159.146088,62.7413153 158.857546,62.2935322 158.489166,61.9051932 C158.120353,61.5168542 157.692529,61.2135593 157.204827,60.9940068 C156.716258,60.7748881 156.193844,60.6651119 155.635851,60.6651119 L155.635851,69.1200542 L151.423566,69.1200542 L151.423566,48.2074576 L155.635851,48.2074576 L155.635851,56.4528271 C156.193844,56.4528271 156.716258,56.3482576 157.204827,56.1395525 C157.692529,55.9299797 158.120353,55.6418712 158.489166,55.2730576 C158.857546,54.904678 159.146088,54.4768542 159.355661,53.9887186 C159.5648,53.5005831 159.668936,52.9877153 159.668936,52.4501153 L159.668936,48.2074576 L163.88122,48.2074576 L163.88122,52.4501153 Z" id="Stroke-86" stroke="#FFFFFE"></path>
                    <polygon id="Fill-87" fill="#0A0B09" points="166.271132 69.1200542 170.483417 69.1200542 170.483417 48.2074576 166.271132 48.2074576"></polygon>
                    <polygon id="Stroke-88" stroke="#FFFFFE" points="166.271132 69.1200542 170.483417 69.1200542 170.483417 48.2074576 166.271132 48.2074576"></polygon>
                    <path d="M173.515498,53.2714847 C173.943756,52.2661424 174.536027,51.3892339 175.29318,50.6424949 C176.049898,49.8957559 176.941125,49.3086915 177.966861,48.8795661 C178.992163,48.4517424 180.102942,48.2378305 181.297898,48.2378305 L185.540122,48.2378305 L185.540122,52.4501153 L181.297898,52.4501153 C180.70042,52.4501153 180.148068,52.5598915 179.639973,52.7785763 C179.132312,52.9976949 178.688434,53.2914441 178.310508,53.6598237 C177.932149,54.0282034 177.633193,54.4568949 177.414508,54.9445966 C177.194956,55.4327322 177.085614,55.9451661 177.085614,56.4832 L185.540122,56.4832 L185.540122,60.7249898 L181.118698,60.7249898 C180.581098,60.7249898 180.068231,60.8347661 179.580095,61.0538847 C179.091959,61.2734373 178.664136,61.5667525 178.295756,61.9351322 C177.926508,62.3039458 177.633193,62.746522 177.414508,63.2645966 C177.194956,63.7826712 177.085614,64.3397966 177.085614,64.9372746 L185.540122,64.9372746 L185.540122,69.1499932 L172.873329,69.1499932 L172.873329,64.9372746 C172.873329,64.1605966 172.982671,63.4095186 173.202224,62.6818712 C173.420908,61.9550915 173.709885,61.3029424 174.068285,60.7249898 L172.873329,60.7249898 L172.873329,56.4832 C172.873329,55.3476881 173.087241,54.2776949 173.515498,53.2714847" id="Fill-89" fill="#0A0B09"></path>
                    <path d="M173.515498,53.2714847 C173.943756,52.2661424 174.536027,51.3892339 175.29318,50.6424949 C176.049898,49.8957559 176.941125,49.3086915 177.966861,48.8795661 C178.992163,48.4517424 180.102942,48.2378305 181.297898,48.2378305 L185.540122,48.2378305 L185.540122,52.4501153 L181.297898,52.4501153 C180.70042,52.4501153 180.148068,52.5598915 179.639973,52.7785763 C179.132312,52.9976949 178.688434,53.2914441 178.310508,53.6598237 C177.932149,54.0282034 177.633193,54.4568949 177.414508,54.9445966 C177.194956,55.4327322 177.085614,55.9451661 177.085614,56.4832 L185.540122,56.4832 L185.540122,60.7249898 L181.118698,60.7249898 C180.581098,60.7249898 180.068231,60.8347661 179.580095,61.0538847 C179.091959,61.2734373 178.664136,61.5667525 178.295756,61.9351322 C177.926508,62.3039458 177.633193,62.746522 177.414508,63.2645966 C177.194956,63.7826712 177.085614,64.3397966 177.085614,64.9372746 L185.540122,64.9372746 L185.540122,69.1499932 L172.873329,69.1499932 L172.873329,64.9372746 C172.873329,64.1605966 172.982671,63.4095186 173.202224,62.6818712 C173.420908,61.9550915 173.709885,61.3029424 174.068285,60.7249898 L172.873329,60.7249898 L172.873329,56.4832 C172.873329,55.3476881 173.087241,54.2776949 173.515498,53.2714847 Z" id="Stroke-90" stroke="#FFFFFE"></path>
                    <path d="M200.50701,60.7549288 C200.50701,61.8904407 200.283553,62.9656407 199.835336,63.9813966 C199.387119,64.9971525 198.784434,65.8836068 198.028149,66.6403254 C197.270563,67.397478 196.379769,67.9997288 195.3536,68.4479458 C194.327864,68.8957288 193.247892,69.1200542 192.112814,69.1200542 L187.930034,69.1200542 L187.930034,64.9372746 L192.112814,64.9372746 C192.689898,64.9372746 193.233139,64.8283661 193.7408,64.6088136 C194.248895,64.3896949 194.691471,64.0911729 195.070264,63.7128136 C195.44819,63.3344542 195.747146,62.8910102 195.966698,62.3829153 C196.185383,61.8752542 196.294725,61.3328814 196.294725,60.7549288 L187.930034,60.7549288 L187.930034,56.5426441 C187.930034,55.4075661 188.154359,54.337139 188.602576,53.3313627 C189.050359,52.3260203 189.657817,51.444339 190.424515,50.6871864 C191.191214,49.9304678 192.077668,49.3277831 193.083444,48.8795661 C194.088786,48.4317831 195.159647,48.2074576 196.294725,48.2074576 L200.50701,48.2074576 L200.50701,52.3902373 L196.294725,52.3902373 C195.717207,52.3902373 195.1744,52.5052203 194.666739,52.7334508 C194.159078,52.9625492 193.715634,53.2671458 193.337275,53.6450712 C192.958915,54.0234305 192.659959,54.4664407 192.441275,54.9741017 C192.222156,55.4821966 192.112814,56.0050441 192.112814,56.5426441 L200.50701,56.5426441 L200.50701,60.7549288" id="Fill-91" fill="#0A0B09"></path>
                    <path d="M200.50701,60.7549288 C200.50701,61.8904407 200.283553,62.9656407 199.835336,63.9813966 C199.387119,64.9971525 198.784434,65.8836068 198.028149,66.6403254 C197.270563,67.397478 196.379769,67.9997288 195.3536,68.4479458 C194.327864,68.8957288 193.247892,69.1200542 192.112814,69.1200542 L187.930034,69.1200542 L187.930034,64.9372746 L192.112814,64.9372746 C192.689898,64.9372746 193.233139,64.8283661 193.7408,64.6088136 C194.248895,64.3896949 194.691471,64.0911729 195.070264,63.7128136 C195.44819,63.3344542 195.747146,62.8910102 195.966698,62.3829153 C196.185383,61.8752542 196.294725,61.3328814 196.294725,60.7549288 L187.930034,60.7549288 L187.930034,56.5426441 C187.930034,55.4075661 188.154359,54.337139 188.602576,53.3313627 C189.050359,52.3260203 189.657817,51.444339 190.424515,50.6871864 C191.191214,49.9304678 192.077668,49.3277831 193.083444,48.8795661 C194.088786,48.4317831 195.159647,48.2074576 196.294725,48.2074576 L200.50701,48.2074576 L200.50701,52.3902373 L196.294725,52.3902373 C195.717207,52.3902373 195.1744,52.5052203 194.666739,52.7334508 C194.159078,52.9625492 193.715634,53.2671458 193.337275,53.6450712 C192.958915,54.0234305 192.659959,54.4664407 192.441275,54.9741017 C192.222156,55.4821966 192.112814,56.0050441 192.112814,56.5426441 L200.50701,56.5426441 L200.50701,60.7549288 Z" id="Stroke-92" stroke="#FFFFFE"></path>
                    <text id="" font-family="MyriadPro-Regular, Myriad Pro" font-size="9" font-weight="normal" fill="#FFFFFE">
                        <tspan x="252.310997" y="50.3057876"></tspan>
                    </text>
                </g>
            </g>
        </g>
    </g>
</svg>